<svg width="16" height="15" viewBox="0 0 16 15" fill="none" xmlns="http://www.w3.org/2000/svg">
<path d="M7.92483 0C3.78322 0 0.424805 3.44281 0.424805 7.68986C0.424805 11.0875 2.57379 13.97 5.5538 14.9868C5.92861 15.058 6.06625 14.82 6.06625 14.6168C6.06625 14.4335 6.05925 13.8277 6.05608 13.1851C3.9695 13.6503 3.52922 12.2778 3.52922 12.2778C3.18806 11.389 2.69649 11.1527 2.69649 11.1527C2.01604 10.6754 2.74778 10.6852 2.74778 10.6852C3.50093 10.7394 3.89751 11.4776 3.89751 11.4776C4.56642 12.6533 5.65203 12.3134 6.08002 12.1169C6.14731 11.6199 6.34171 11.2807 6.55618 11.0886C4.89035 10.8941 3.13912 10.2348 3.13912 7.28825C3.13912 6.44873 3.43211 5.7627 3.91192 5.22419C3.83404 5.03048 3.57734 4.24837 3.98456 3.18914C3.98456 3.18914 4.61436 2.98246 6.04761 3.9774C6.64582 3.80696 7.28744 3.72156 7.92483 3.71867C8.56222 3.72156 9.20432 3.80696 9.80371 3.9774C11.2352 2.98246 11.8642 3.18914 11.8642 3.18914C12.2724 4.24837 12.0156 5.03048 11.9377 5.22419C12.4186 5.7627 12.7095 6.44867 12.7095 7.28825C12.7095 10.2418 10.955 10.8921 9.28496 11.0825C9.55395 11.3211 9.79365 11.7891 9.79365 12.5065C9.79365 13.5354 9.78494 14.3635 9.78494 14.6168C9.78494 14.8215 9.91994 15.0613 10.3002 14.9858C13.2785 13.9678 15.4248 11.0863 15.4248 7.68986C15.4248 3.44281 12.0669 0 7.92483 0Z" fill="white"/>
<path d="M3.23408 10.9544C3.21761 10.9926 3.15891 11.004 3.10556 10.9778C3.05115 10.9527 3.02056 10.9006 3.03821 10.8623C3.05438 10.823 3.11309 10.812 3.16738 10.8384C3.2219 10.8634 3.25296 10.916 3.23408 10.9544V10.9544ZM3.60301 11.2919C3.56724 11.3259 3.4973 11.3101 3.44984 11.2563C3.40078 11.2027 3.3916 11.1311 3.4279 11.0965C3.46478 11.0626 3.5326 11.0784 3.58177 11.1321C3.63083 11.1863 3.64036 11.2576 3.60295 11.2919L3.60301 11.2919ZM3.85611 11.7237C3.81012 11.7564 3.73494 11.7257 3.68853 11.6573C3.64259 11.589 3.64259 11.507 3.68953 11.4741C3.73612 11.4413 3.81012 11.4708 3.85717 11.5387C3.90305 11.6082 3.90305 11.6902 3.85605 11.7238L3.85611 11.7237ZM4.2841 12.2238C4.24298 12.2703 4.15545 12.2579 4.09134 12.1944C4.02581 12.1324 4.00752 12.0444 4.04875 11.9979C4.09034 11.9514 4.17839 11.9644 4.24298 12.0274C4.30809 12.0892 4.32798 12.1779 4.28415 12.2238H4.2841ZM4.83725 12.3927C4.81919 12.4529 4.73484 12.4803 4.6499 12.4547C4.56508 12.4284 4.50956 12.3578 4.52667 12.2969C4.54432 12.2363 4.62902 12.2078 4.71461 12.2352C4.79931 12.2614 4.85495 12.3314 4.83731 12.3927H4.83725ZM5.46687 12.4643C5.46899 12.5277 5.39693 12.5803 5.30776 12.5815C5.21806 12.5835 5.14553 12.5321 5.14459 12.4698C5.14459 12.4057 5.215 12.3536 5.30464 12.3521C5.39381 12.3503 5.46687 12.4013 5.46687 12.4643V12.4643ZM6.08531 12.44C6.09602 12.5019 6.03402 12.5654 5.9455 12.5823C5.85844 12.5986 5.77786 12.5604 5.76674 12.4991C5.75592 12.4357 5.81909 12.3721 5.90597 12.3557C5.99467 12.3399 6.07402 12.3771 6.08531 12.44" fill="#161614"/>
</svg>
