<svg width="10" height="20" viewBox="0 0 10 20" fill="none" xmlns="http://www.w3.org/2000/svg">
<path fill-rule="evenodd" clip-rule="evenodd" d="M5.28531 19.3844L4.71488 19.2083C4.71488 19.2083 4.78455 16.5817 3.74082 16.3932C3.04525 15.6642 3.8524 -14.5242 6.35693 16.2926C6.35693 16.2926 5.49414 16.6821 5.34109 17.3483C5.17403 18.0019 5.28531 19.3844 5.28531 19.3844Z" fill="white"/>
<path fill-rule="evenodd" clip-rule="evenodd" d="M5.28531 19.3844L4.71488 19.2083C4.71488 19.2083 4.78455 16.5817 3.74082 16.3932C3.04525 15.6642 3.8524 -14.5242 6.35693 16.2926C6.35693 16.2926 5.49414 16.6821 5.34109 17.3483C5.17403 18.0019 5.28531 19.3844 5.28531 19.3844Z" fill="white"/>
<path fill-rule="evenodd" clip-rule="evenodd" d="M5.59126 16.8456C5.59126 16.8456 10.5868 13.8795 9.41768 7.70852C8.29075 3.22192 5.63302 1.75144 5.34081 1.18584C5.02084 0.783664 4.7146 0.0799561 4.7146 0.0799561L4.92344 12.5598C4.92344 12.5725 4.49204 16.3805 5.59141 16.8457" fill="white"/>
<path fill-rule="evenodd" clip-rule="evenodd" d="M4.42296 17.009C4.42296 17.009 -0.266429 14.1184 0.0119186 9.02844C0.276244 3.93838 3.58792 1.43735 4.228 0.984916C4.64552 0.58274 4.65939 0.431839 4.68729 0.0296631C4.97951 0.59527 4.92387 8.48805 4.96549 9.41792C5.09064 12.9998 4.74293 16.3305 4.42296 17.009Z" fill="white"/>
<path fill-rule="evenodd" clip-rule="evenodd" d="M4.42296 17.009C4.42296 17.009 -0.266429 14.1184 0.0119186 9.02844C0.276244 3.93838 3.58792 1.43735 4.228 0.984916C4.64552 0.58274 4.65939 0.431839 4.68729 0.0296631C4.97951 0.59527 4.92387 8.48805 4.96549 9.41792C5.09064 12.9998 4.74293 16.3305 4.42296 17.009Z" fill="white"/>
</svg>
