<svg width="80" height="79" viewBox="0 0 80 79" fill="none" xmlns="http://www.w3.org/2000/svg">
<g clip-path="url(#clip0)">
<path d="M73.6392 60.6912C69.2898 60.5828 65.9189 61.0178 63.0917 62.2137C62.2761 62.5397 60.9711 62.54 60.8623 63.5731C61.2973 64.0081 61.3517 64.715 61.7323 65.3128C62.3855 66.4 63.5264 67.8681 64.5595 68.6297C65.7011 69.4994 66.8433 70.369 68.0389 71.1303C70.1595 72.4353 72.552 73.1962 74.618 74.5012C75.8145 75.2619 77.0098 76.2412 78.2061 77.0565C78.8042 77.4909 79.1845 78.1984 79.9461 78.47V78.3072C79.5652 77.8175 79.4564 77.1109 79.0761 76.5672C78.533 76.0234 77.9886 75.534 77.4448 74.9903C75.8683 72.8703 73.9111 71.0215 71.7908 69.4993C70.0511 68.3031 66.2448 66.6722 65.5383 64.6603C65.5383 64.6603 65.4836 64.6062 65.4295 64.5518C66.6255 64.4431 68.0389 64.0081 69.1811 63.6819C71.0295 63.1922 72.7148 63.3012 74.618 62.8119C75.4877 62.5944 76.3577 62.3225 77.2273 62.0506V61.5615C76.2492 60.5828 75.5423 59.2781 74.5092 58.3537C71.7364 55.9609 68.6914 53.6234 65.5383 51.6662C63.8527 50.5787 61.6777 49.8718 59.8836 48.9478C59.2317 48.6212 58.1439 48.4584 57.7636 47.9147C56.7845 46.7187 56.2408 45.1422 55.5342 43.7284C53.958 40.7378 52.4352 37.4215 51.0758 34.2684C50.0977 32.1478 49.4995 30.0272 48.3033 28.0703C42.7033 18.8275 36.6139 13.2275 27.2627 7.73591C25.2508 6.59435 22.8586 6.10497 20.3033 5.50716C18.9445 5.45247 17.5848 5.34404 16.2258 5.28935C15.3558 4.90873 14.4858 3.87591 13.7245 3.38654C10.6261 1.42904 2.63328 -2.81127 0.349847 2.78873C-1.11828 6.32248 2.52485 9.80185 3.77485 11.5965C4.69985 12.8469 5.89547 14.2603 6.54797 15.674C6.9286 16.5978 7.03703 17.5772 7.41766 18.5556C8.28797 20.9472 9.10297 23.6119 10.2452 25.8412C10.8433 26.9828 11.4955 28.1787 12.2567 29.2119C12.6917 29.8097 13.4527 30.0819 13.6161 31.0603C12.8552 32.1478 12.8005 33.779 12.3652 35.1381C10.408 41.2819 11.1695 48.8934 13.942 53.4059C14.8117 54.7647 16.878 57.7559 19.6508 56.6137C22.0977 55.6353 21.5539 52.5362 22.2602 49.8178C22.4239 49.1647 22.3152 48.7303 22.6411 48.2953V48.4044C23.4023 49.9262 24.1633 51.3947 24.8702 52.9169C26.5558 55.5806 29.4914 58.3537 31.938 60.2025C33.2433 61.1806 34.2761 62.8662 35.9073 63.4644V63.3009H35.7983C35.472 62.8115 34.9827 62.5943 34.548 62.2134C33.5695 61.2353 32.4817 60.039 31.7208 58.9515C29.4377 55.9065 27.4255 52.5359 25.6314 49.0562C24.7617 47.3712 24.0002 45.5225 23.2936 43.8372C22.967 43.184 22.967 42.2059 22.4236 41.88C21.608 43.0759 20.412 44.109 19.8139 45.5768C18.7814 47.9147 18.6723 50.7962 18.2917 53.7862C18.0742 53.8412 18.1827 53.7862 18.0739 53.8956C16.3345 53.46 15.7364 51.6662 15.0836 50.1437C13.4523 46.2837 13.1805 40.0856 14.5945 35.6275C14.9752 34.4856 16.6064 30.8975 15.9539 29.81C15.6277 28.7769 14.5398 28.1787 13.942 27.3634C13.2355 26.3303 12.4739 25.0259 11.9848 23.8837C10.6798 20.839 10.0273 17.4681 8.61391 14.4234C7.96141 13.0097 6.82016 11.5422 5.89547 10.2372C4.86266 8.76935 3.72078 7.73591 2.90516 5.99622C2.6336 5.39841 2.25266 4.41966 2.68766 3.76716C2.79641 3.33216 3.0136 3.16935 3.44891 3.0606C4.15578 2.46216 6.16766 3.22341 6.87391 3.54966C8.88578 4.36466 10.5711 5.12654 12.2567 6.2681C13.0177 6.81185 13.8333 7.84498 14.8117 8.11685H15.9536C17.6936 8.49716 19.6505 8.2256 21.2817 8.71466C24.1636 9.63872 26.773 10.9981 29.1111 12.4662C36.2336 16.9787 42.1048 23.3944 46.0742 31.0603C46.7267 32.3103 46.9983 33.4528 47.5964 34.7572C48.7386 37.4215 50.152 40.14 51.2933 42.7497C52.4352 45.3047 53.5223 47.9147 55.1536 50.0353C55.9692 51.1765 59.2311 51.775 60.6992 52.3731C61.7867 52.8622 63.4723 53.2975 64.4508 53.8953C66.2992 55.0365 68.1477 56.3422 69.8877 57.5922C70.7577 58.2447 73.4758 59.604 73.6392 60.6912V60.6912Z" fill="#00546B"/>
<path d="M18.1829 13.4443C17.2588 13.4443 16.6066 13.5537 15.9541 13.7165V13.8253H16.0629C16.4982 14.6953 17.2588 15.2934 17.8022 16.0543C18.2375 16.924 18.6179 17.7943 19.0532 18.6643C19.1072 18.6096 19.1616 18.5556 19.1616 18.5556C19.9232 18.0115 20.3035 17.1418 20.3035 15.8368C19.9772 15.4565 19.9229 15.0759 19.651 14.6953C19.325 14.1512 18.6179 13.8796 18.1829 13.4443V13.4443Z" fill="#00546B"/>
</g>
<defs>
<clipPath id="clip0">
<rect width="80" height="78.752" fill="white"/>
</clipPath>
</defs>
</svg>
