<svg width="70" height="73" viewBox="0 0 70 73" fill="none" xmlns="http://www.w3.org/2000/svg">
<g clip-path="url(#clip0)">
<path d="M69.729 43.2266C69.3093 41.9554 68.2098 41.07 66.7879 40.8575C66.1174 40.7575 65.3496 40.8001 64.441 40.9874C62.8572 41.3142 61.6823 41.4386 60.8248 41.4626C64.0615 35.998 66.6933 29.7664 68.2084 23.9003C70.6584 14.415 69.3492 10.0939 67.8193 8.13936C63.7705 2.96593 57.8635 0.186707 50.7371 0.101668C46.9355 0.0551839 43.5982 0.80577 41.8572 1.34554C40.2363 1.05952 38.4934 0.899832 36.6647 0.870301C33.2366 0.815614 30.2077 1.56292 27.6196 3.09882C26.1868 2.61429 23.8872 1.93124 21.2316 1.49538C14.9857 0.469989 9.95175 1.26897 6.26964 3.87018C1.81097 7.01964 -0.255948 12.4917 0.126318 20.1342C0.247724 22.5607 1.60507 29.9435 3.74226 36.9452C4.97054 40.9696 6.2803 44.3116 7.63518 46.8792C9.55663 50.52 11.6126 52.664 13.9207 53.434C15.2143 53.865 17.5648 54.1668 20.0369 52.1078C20.3503 52.4874 20.7684 52.8644 21.3232 53.2147C22.0278 53.6591 22.8894 54.0222 23.7499 54.2374C26.851 55.0126 29.7557 54.8187 32.2339 53.7321C32.2492 54.1728 32.261 54.5939 32.2708 54.9576C32.2872 55.5474 32.3036 56.1257 32.3252 56.6666C32.4721 60.3236 32.7209 63.167 33.4581 65.1566C33.4985 65.2659 33.553 65.4327 33.6104 65.6096C33.9782 66.7357 34.5931 68.6207 36.1577 70.097C37.7778 71.6264 39.7376 72.0953 41.5324 72.0953C42.4326 72.0953 43.2914 71.9772 44.0447 71.8159C46.7299 71.2403 49.7796 70.3636 51.9856 67.2224C54.0714 64.2528 55.0853 59.7802 55.2688 52.7329C55.2926 52.5336 55.3145 52.3433 55.3355 52.162L55.3793 51.7896L55.8706 51.8328L55.9972 51.8412C58.7322 51.9659 62.0763 51.386 64.1301 50.4319C65.7529 49.6789 70.9535 46.9333 69.729 43.2266" fill="black"/>
<path d="M65.0522 43.9472C56.9202 45.6248 56.361 42.8715 56.361 42.8715C64.947 30.1312 68.5364 13.9593 65.4392 10.0013C56.9889 -0.795368 42.3613 4.3108 42.1171 4.44315L42.0387 4.45737C40.4319 4.12377 38.6341 3.92526 36.6131 3.89217C32.9337 3.83202 30.1425 4.85686 28.0244 6.46303C28.0244 6.46303 1.93031 -4.28689 3.1441 19.9829C3.40222 25.1459 10.5444 59.0497 19.0631 48.8092C22.1767 45.0645 25.1853 41.8984 25.1853 41.8984C26.6794 42.8909 28.4682 43.3973 30.3435 43.2155L30.4892 43.0919C30.4438 43.5567 30.4646 44.0115 30.5475 44.5499C28.3528 47.0018 28.9979 47.4322 24.6108 48.3353C20.1716 49.2503 22.7794 50.8789 24.4821 51.3049C26.5462 51.8209 31.3216 52.552 34.5481 48.0351L34.4196 48.5505C35.2793 49.2393 35.883 53.0303 35.7819 56.4671C35.6807 59.9037 35.6132 62.2632 36.2905 64.1061C36.9683 65.9491 37.6434 70.0958 43.4108 68.8601C48.2296 67.8273 50.7269 65.1512 51.0744 60.6871C51.3208 57.5135 51.8789 57.9828 51.9139 55.1453L52.3615 53.8022C52.8774 49.5002 52.4435 48.1122 55.4122 48.7578L56.1341 48.8212C58.3189 48.9205 61.179 48.4696 62.8576 47.6895C66.4719 46.0122 68.6157 43.2114 65.0517 43.9472H65.0522" fill="#336791"/>
<path d="M29.552 22.2919C28.8192 22.1899 28.1555 22.2843 27.8198 22.5386C27.6311 22.6816 27.5726 22.8473 27.5567 22.9613C27.5146 23.2634 27.7263 23.5976 27.8564 23.7699C28.2245 24.2577 28.762 24.5929 29.2941 24.6667C29.3713 24.6777 29.4481 24.6826 29.5244 24.6826C30.4117 24.6826 31.2186 23.9916 31.2897 23.4817C31.3786 22.8429 30.4513 22.4172 29.552 22.2922V22.2919ZM53.8289 22.3122C53.7589 21.8115 52.868 21.6688 52.0225 21.7863C51.1782 21.9039 50.3595 22.2851 50.4279 22.7868C50.4825 23.177 51.1872 23.8431 52.0212 23.8431C52.0917 23.8431 52.1628 23.8385 52.2345 23.8284C52.7912 23.7513 53.1997 23.3977 53.3938 23.194C53.6891 22.8834 53.8603 22.5372 53.8289 22.3122" fill="white"/>
<path d="M67.7585 43.757C67.4484 42.8194 66.4503 42.5178 64.7922 42.8602C59.869 43.8763 58.1058 43.1724 57.527 42.7461C61.3537 36.9165 64.5018 29.8694 66.2001 23.2946C67.0046 20.1802 67.4489 17.2877 67.4853 14.9302C67.5255 12.3426 67.0847 10.4411 66.1758 9.27958C62.5112 4.59696 57.1327 2.08516 50.6221 2.01626C46.1462 1.96594 42.3646 3.11137 41.6315 3.43348C40.0877 3.04958 38.4047 2.81387 36.5724 2.78379C33.2124 2.72938 30.3079 3.53383 27.9033 5.17364C26.8588 4.78481 24.1594 3.85813 20.8582 3.32629C15.151 2.40754 10.6158 3.10372 7.37936 5.39649C3.51761 8.13251 1.73479 13.0232 2.08014 19.9324C2.19636 22.2569 3.52089 29.4079 5.61104 36.2561C8.36237 45.2697 11.3532 50.3723 14.4999 51.422C14.8683 51.5448 15.2929 51.6307 15.7613 51.6307C16.9092 51.6307 18.3166 51.1133 19.7808 49.3529C21.5668 47.2104 23.4143 45.12 25.321 43.0841C26.558 43.748 27.917 44.1188 29.3069 44.156C29.3096 44.1924 29.3132 44.2287 29.3164 44.2648C29.0772 44.5501 28.8429 44.8395 28.6137 45.133C27.6507 46.3555 27.4502 46.6101 24.3503 47.2483C23.4684 47.4304 21.1264 47.913 21.092 49.5547C21.0548 51.3485 23.8605 52.1018 24.1802 52.1817C25.2942 52.4606 26.3674 52.5981 27.3909 52.5981C29.88 52.5981 32.0705 51.78 33.821 50.197C33.7672 56.5916 34.0338 62.8927 34.8016 64.8126C35.4305 66.3843 36.9667 70.2252 41.8191 70.225C42.5311 70.225 43.3148 70.1421 44.1769 69.9573C49.2413 68.8717 51.4405 66.6334 52.2912 61.6986C52.7465 59.0613 53.5277 52.7638 53.8952 49.3858C54.6707 49.6277 55.669 49.7385 56.7482 49.7382C58.9992 49.7382 61.5966 49.26 63.2254 48.5039C65.0553 47.6541 68.3573 45.5688 67.7585 43.757V43.757ZM55.6982 20.9305C55.6816 21.9277 55.5443 22.8331 55.3988 23.7781C55.2421 24.7944 55.0803 25.8452 55.0395 27.1208C54.9993 28.3622 55.1544 29.6529 55.3042 30.9011C55.6072 33.4222 55.9181 36.0177 54.7147 38.5787C54.5148 38.2245 54.3367 37.8584 54.1815 37.4825C54.0319 37.1199 53.7071 36.5375 53.2573 35.7314C51.5075 32.5934 47.4101 25.245 49.5076 22.2465C50.1324 21.354 51.7181 20.4364 55.6982 20.9305V20.9305ZM50.8737 4.03559C56.7072 4.16438 61.3217 6.34669 64.5888 10.5215C67.0946 13.7238 64.3353 28.2944 56.3474 40.8646C56.267 40.7625 56.1863 40.6607 56.1051 40.5592L56.0039 40.4329C58.0681 37.0239 57.6645 33.6511 57.3052 30.6607C57.1576 29.4336 57.0181 28.2745 57.0537 27.1856C57.0903 26.0317 57.2429 25.0419 57.3905 24.0849C57.5718 22.9055 57.7564 21.6852 57.7055 20.2466C57.7435 20.0957 57.7589 19.9174 57.7389 19.7057C57.609 18.3263 56.034 14.1976 52.8239 10.4608C51.0678 8.41688 48.5071 6.12958 45.0107 4.58684C46.5146 4.27512 48.5711 3.98446 50.8737 4.03559V4.03559ZM18.2313 48.0645C16.618 50.0043 15.504 49.6324 15.1376 49.5104C12.7505 48.7142 9.98057 43.6687 7.5385 35.6679C5.42538 28.745 4.19053 21.7836 4.09264 19.8315C3.78421 13.6579 5.28073 9.35532 8.54093 7.04313C13.8467 3.28063 22.5699 5.53266 26.0751 6.67481C26.0248 6.72458 25.9723 6.77106 25.9225 6.82165C20.1705 12.6306 20.3069 22.5552 20.3212 23.162C20.3206 23.3961 20.3403 23.7275 20.3671 24.1833C20.4661 25.8526 20.6504 28.9594 20.1582 32.4777C19.701 35.7472 20.7089 38.9473 22.9229 41.2575C23.1501 41.4942 23.389 41.7194 23.6385 41.9324C22.653 42.9879 20.5112 45.3219 18.2313 48.0645V48.0645ZM24.3779 39.8633C22.5934 38.0012 21.783 35.4112 22.154 32.7566C22.6735 29.0401 22.4819 25.8031 22.3788 24.0641C22.3643 23.8207 22.3514 23.6074 22.344 23.4393C23.1843 22.6941 27.0783 20.6078 29.8554 21.2441C31.1225 21.5342 31.8947 22.3972 32.2157 23.8814C33.8771 31.5658 32.4355 34.7686 31.2773 37.3425C31.0385 37.8727 30.813 38.3739 30.6205 38.8923L30.4712 39.2932C30.0933 40.3065 29.7416 41.2488 29.5237 42.1435C27.6266 42.138 25.7812 41.3275 24.3779 39.863V39.8633ZM24.6691 50.2266C24.1151 50.0882 23.6169 49.8479 23.3246 49.6485C23.5688 49.5337 24.0033 49.3773 24.7569 49.222C28.4037 48.4714 28.967 47.9415 30.1969 46.3799C30.4788 46.0217 30.7985 45.6159 31.2412 45.1215L31.2417 45.1209C31.901 44.3827 32.2026 44.5079 32.7494 44.7349C33.1927 44.9181 33.6244 45.4737 33.7994 46.0851C33.8823 46.3738 33.9753 46.9218 33.6709 47.3484C31.1017 50.9457 27.3578 50.8995 24.6691 50.2266V50.2266ZM43.7548 67.9869C39.2933 68.9428 37.7137 66.6665 36.6727 64.0642C36.0009 62.3842 35.6706 54.8083 35.9049 46.4419C35.9079 46.3306 35.8921 46.2232 35.8614 46.122C35.834 45.9222 35.7924 45.7247 35.7367 45.5308C35.3884 44.3135 34.5394 43.2952 33.5208 42.873C33.1161 42.7054 32.3735 42.3978 31.481 42.6261C31.6713 41.8419 32.0013 40.9562 32.3592 39.9973L32.5094 39.594C32.6783 39.1392 32.8905 38.6681 33.1148 38.1693C34.3269 35.4765 35.9869 31.7881 34.1853 23.4557C33.5104 20.3347 31.2567 18.8105 27.8404 19.1646C25.7924 19.3765 23.9185 20.2029 22.9839 20.6767C22.7829 20.7784 22.5992 20.8769 22.4274 20.9726C22.6883 17.8281 23.6738 11.9513 27.3603 8.23313C29.6815 5.89251 32.7727 4.73641 36.539 4.79876C43.9601 4.92016 48.719 8.7286 51.4047 11.9024C53.7191 14.637 54.9723 17.3919 55.4724 18.8778C51.7112 18.4952 49.1532 19.2376 47.8566 21.0915C45.0355 25.1242 49.3999 32.9511 51.4974 36.7127C51.8821 37.4021 52.2141 37.9979 52.3185 38.2511C53.0016 39.9065 53.8859 41.0117 54.5315 41.8184C54.7294 42.0656 54.9214 42.3054 55.0674 42.5148C53.9283 42.8432 51.8821 43.602 52.0686 47.3949C51.9182 49.298 50.8488 58.2082 50.3055 61.3563C49.5883 65.5153 48.0578 67.0643 43.7548 67.9872V67.9869ZM62.3769 46.6763C61.2121 47.2168 59.2628 47.6224 57.411 47.7096C55.3657 47.8053 54.3245 47.4804 54.0795 47.2806C53.9646 44.917 54.8443 44.67 55.7753 44.4086C55.9216 44.3676 56.0644 44.3274 56.2022 44.2793C56.2878 44.349 56.3816 44.4182 56.4844 44.486C58.1283 45.571 61.0603 45.6881 65.1999 44.8336L65.2453 44.8245C64.6869 45.3465 63.7316 46.0471 62.3769 46.6763Z" fill="white"/>
</g>
<defs>
<clipPath id="clip0">
<rect width="70" height="72.1947" fill="white"/>
</clipPath>
</defs>
</svg>
