<svg width="20" height="20" viewBox="0 0 20 20" fill="none" xmlns="http://www.w3.org/2000/svg">
<path d="M8.44346 6.1637C8.23406 6.1355 8.04446 6.16157 7.94852 6.23189C7.89459 6.27143 7.87786 6.31725 7.87339 6.34877C7.86133 6.43231 7.92179 6.52471 7.95899 6.57232C8.06413 6.70723 8.21772 6.79987 8.36979 6.82032C8.39179 6.82335 8.41373 6.82471 8.43553 6.82471C8.68906 6.82471 8.91959 6.63361 8.93992 6.49265C8.96532 6.31603 8.70039 6.19832 8.44346 6.16377V6.1637ZM15.3797 6.16929C15.3597 6.03086 15.1051 5.99139 14.8636 6.0239C14.6223 6.05641 14.3885 6.16181 14.408 6.30054C14.4236 6.40842 14.6249 6.59258 14.8632 6.59258C14.8834 6.59258 14.9037 6.59129 14.9241 6.58852C15.0832 6.56716 15.1999 6.46942 15.2554 6.41311C15.3398 6.32723 15.3887 6.23151 15.3797 6.16929Z" fill="white"/>
<path d="M19.4499 12.5454C19.3613 12.286 19.0761 12.2026 18.6021 12.2973C17.1951 12.5783 16.6912 12.3837 16.5257 12.2658C17.6194 10.6534 18.5191 8.70427 19.0045 6.88574C19.2345 6.02433 19.3615 5.22432 19.3719 4.57225C19.3833 3.85657 19.2574 3.33065 18.9976 3.00938C17.9503 1.71423 16.413 1.0195 14.5523 1.00044C13.2731 0.986529 12.1923 1.30334 11.9827 1.39243C11.5415 1.28624 11.0605 1.22106 10.5368 1.21273C9.57653 1.19768 8.74639 1.42019 8.05913 1.87373C7.76059 1.76619 6.98913 1.50988 6.04562 1.36278C4.41448 1.10867 3.11828 1.30122 2.19331 1.93537C1.0896 2.69212 0.580065 4.04481 0.678769 5.95581C0.711982 6.59873 1.09054 8.57659 1.68792 10.4707C2.47426 12.9638 3.32906 14.375 4.22841 14.6654C4.33367 14.6994 4.45504 14.7231 4.58891 14.7231C4.91698 14.7231 5.31922 14.58 5.73771 14.0931C6.24815 13.5005 6.77619 12.9223 7.32113 12.3592C7.67466 12.5429 8.06306 12.6454 8.46026 12.6557C8.46106 12.6658 8.46206 12.6758 8.46299 12.6858C8.39466 12.7647 8.32766 12.8448 8.26219 12.9259C7.98693 13.2641 7.92966 13.3345 7.04366 13.511C6.79166 13.5614 6.12228 13.6949 6.11243 14.1489C6.10181 14.645 6.90373 14.8534 6.99506 14.8755C7.31346 14.9527 7.62019 14.9907 7.91266 14.9907C8.62406 14.9907 9.25013 14.7644 9.75046 14.3266C9.73506 16.0952 9.81126 17.838 10.0307 18.369C10.2105 18.8038 10.6495 19.8661 12.0363 19.866C12.2399 19.866 12.4638 19.8431 12.7102 19.7919C14.1577 19.4918 14.7862 18.8727 15.0293 17.5078C15.1595 16.7783 15.3827 15.0365 15.4877 14.1022C15.7094 14.1691 15.9947 14.1998 16.3031 14.1997C16.9465 14.1997 17.6888 14.0674 18.1543 13.8583C18.6773 13.6232 19.6211 13.0465 19.4499 12.5454ZM16.0031 6.23185C15.9983 6.50767 15.9591 6.75808 15.9175 7.01943C15.8727 7.30059 15.8265 7.59124 15.8148 7.94401C15.8033 8.28737 15.8476 8.64433 15.8905 8.98956C15.9771 9.68691 16.0659 10.4048 15.7219 11.1131C15.6648 11.0151 15.6139 10.9139 15.5695 10.8099C15.5268 10.7096 15.434 10.5485 15.3054 10.3256C14.8053 9.45762 13.6343 7.42517 14.2337 6.59586C14.4123 6.349 14.8655 6.09519 16.0031 6.23185ZM14.6242 1.55897C16.2914 1.59459 17.6103 2.19818 18.544 3.35288C19.2602 4.23857 18.4716 8.26859 16.1886 11.7454C16.1656 11.7171 16.1425 11.6889 16.1193 11.6609L16.0904 11.6259C16.6804 10.683 16.565 9.75021 16.4623 8.92311C16.4201 8.58369 16.3803 8.26311 16.3905 7.96195C16.4009 7.64279 16.4445 7.36898 16.4867 7.10433C16.5385 6.77812 16.5913 6.44059 16.5767 6.0427C16.5876 6.00095 16.592 5.95164 16.5863 5.89311C16.5492 5.51156 16.099 4.36964 15.1815 3.3361C14.6797 2.77077 13.9478 2.13813 12.9485 1.71143C13.3783 1.62522 13.9661 1.54483 14.6242 1.55897ZM5.29483 13.7367C4.83375 14.2732 4.51537 14.1704 4.41064 14.1367C3.7284 13.9165 2.93674 12.5209 2.23879 10.308C1.63485 8.39324 1.28192 6.46781 1.25395 5.9279C1.1658 4.22035 1.59351 3.03033 2.52529 2.39081C4.04171 1.35015 6.53483 1.97303 7.53666 2.28893C7.52226 2.3027 7.50726 2.31555 7.49306 2.32955C5.84907 3.93621 5.88807 6.68124 5.89213 6.84906C5.89197 6.91382 5.8976 7.00543 5.90526 7.13156C5.93355 7.59324 5.98623 8.45253 5.84555 9.42569C5.71489 10.3299 6.00295 11.215 6.63573 11.854C6.70067 11.9195 6.76893 11.9818 6.84026 12.0407C6.55859 12.3326 5.94645 12.9782 5.29483 13.7367ZM7.05159 11.4684C6.54155 10.9534 6.30992 10.237 6.41597 9.50279C6.56445 8.47485 6.50967 7.57956 6.48021 7.09853C6.47607 7.03124 6.47239 6.97227 6.47028 6.92575C6.71043 6.71966 7.82339 6.14261 8.61706 6.3186C8.97919 6.39884 9.19993 6.63753 9.29166 7.04801C9.76646 9.17343 9.35446 10.0593 9.02346 10.7712C8.95519 10.9178 8.89073 11.0565 8.83573 11.1998L8.79306 11.3107C8.68506 11.591 8.58453 11.8516 8.52226 12.099C7.98006 12.0976 7.45259 11.8734 7.05159 11.4683V11.4684ZM7.13479 14.3347C6.97646 14.2965 6.83406 14.23 6.75053 14.1749C6.82033 14.1431 6.94453 14.0998 7.15986 14.0569C8.20213 13.8493 8.36313 13.7027 8.71466 13.2708C8.79526 13.1717 8.88659 13.0595 9.01313 12.9227L9.01326 12.9226C9.20166 12.7184 9.28786 12.753 9.44419 12.8158C9.57086 12.8665 9.69426 13.0201 9.74426 13.1892C9.76799 13.2691 9.79453 13.4207 9.70753 13.5387C8.97326 14.5336 7.90326 14.5209 7.13479 14.3347ZM12.5895 19.247C11.3145 19.5114 10.863 18.8818 10.5655 18.162C10.3735 17.6974 10.2791 15.6019 10.3461 13.2879C10.3469 13.2572 10.3424 13.2274 10.3336 13.1995C10.3258 13.1442 10.3139 13.0896 10.298 13.0359C10.1984 12.6992 9.95573 12.4176 9.66466 12.3009C9.54899 12.2545 9.33673 12.1694 9.08166 12.2325C9.13606 12.0156 9.23039 11.7707 9.33266 11.5054L9.37559 11.3939C9.42386 11.2681 9.48453 11.1378 9.54859 10.9999C9.89506 10.2551 10.3695 9.23491 9.85453 6.93027C9.66166 6.06706 9.01759 5.6455 8.04119 5.74344C7.45586 5.80205 6.92026 6.03061 6.65315 6.16167C6.59571 6.1898 6.54319 6.21703 6.49412 6.2435C6.56867 5.37377 6.85033 3.74835 7.90393 2.71995C8.56733 2.07256 9.45086 1.7528 10.5273 1.77004C12.6483 1.80363 14.0084 2.85699 14.7759 3.73481C15.4374 4.49117 15.7956 5.25313 15.9385 5.6641C14.8635 5.5583 14.1325 5.76363 13.7619 6.2764C12.9556 7.39175 14.2029 9.55659 14.8025 10.597C14.9124 10.7877 15.0073 10.9525 15.0371 11.0225C15.2323 11.4803 15.4851 11.786 15.6696 12.0092C15.7262 12.0775 15.7811 12.1438 15.8228 12.2018C15.4972 12.2926 14.9124 12.5025 14.9657 13.5515C14.9227 14.0779 14.6171 16.5423 14.4618 17.413C14.2568 18.5634 13.8194 18.9918 12.5895 19.247V19.247ZM17.9119 13.3528C17.5789 13.5023 17.0218 13.6145 16.4926 13.6386C15.908 13.665 15.6105 13.5752 15.5404 13.5199C15.5076 12.8662 15.759 12.7979 16.0251 12.7256C16.0669 12.7143 16.1077 12.7031 16.1471 12.6898C16.1715 12.7091 16.1983 12.7282 16.2277 12.747C16.6976 13.0471 17.5356 13.0794 18.7187 12.8431L18.7317 12.8406C18.5721 12.985 18.299 13.1787 17.9119 13.3528Z" fill="white"/>
</svg>
