<svg width="38" height="31" viewBox="0 0 38 31" fill="none" xmlns="http://www.w3.org/2000/svg">
<path d="M25.0848 1.06976V1.0625H26.7624L27.3751 1.18741C27.783 1.26875 28.1538 1.37333 28.4873 1.50551C28.8208 1.63623 29.1429 1.78874 29.4549 1.96304C29.767 2.13734 30.049 2.316 30.3038 2.4961C30.5557 2.67476 30.7804 2.86504 30.9808 3.06548C31.1784 3.26883 31.4876 3.32112 31.907 3.22235C32.3264 3.12358 32.7773 2.9885 33.2611 2.81275C33.7449 2.637 34.223 2.44236 34.6968 2.22304C35.1692 2.00516 35.4584 1.86572 35.5614 1.80763C35.663 1.74662 35.716 1.71321 35.7232 1.70886L35.7289 1.69869L35.7618 1.68271L35.7947 1.66673L35.8277 1.65076L35.8606 1.63478L35.8677 1.62461L35.8778 1.61735L35.8878 1.61009L35.8935 1.59992L35.9264 1.58975L35.9594 1.58249L35.9536 1.63187L35.9436 1.68126L35.9279 1.73064L35.9121 1.78003L35.8964 1.81344L35.8806 1.84684L35.8649 1.89623C35.8534 1.92963 35.8434 1.97321 35.832 2.02695C35.8205 2.08215 35.7189 2.30002 35.5256 2.68202C35.3324 3.06403 35.0905 3.45039 34.7999 3.84401C34.5093 4.23618 34.2502 4.53394 34.0198 4.73439C33.7879 4.93773 33.6333 5.07862 33.5588 5.15996C33.483 5.24276 33.3928 5.31974 33.2854 5.38946L33.1237 5.49694L33.0908 5.51292L33.0578 5.5289L33.0521 5.53906L33.0421 5.54633L33.0321 5.55359L33.0249 5.56376L32.992 5.57973L32.9591 5.59571L32.9534 5.60588L32.9433 5.61314L32.9333 5.6204L32.9262 5.63057L32.9204 5.64074L32.9104 5.648L32.9004 5.65526L32.8932 5.66543H33.055L33.9582 5.46934C34.5608 5.33862 35.1348 5.1803 35.6831 4.99438L36.5534 4.69953L36.6507 4.66612L36.6994 4.65014L36.7323 4.63416L36.7652 4.61819L36.7982 4.60221L36.8311 4.58623L36.8955 4.57606L36.9599 4.5688V4.63416L36.9442 4.64143L36.9284 4.65159L36.9227 4.66176L36.9127 4.66902L36.9027 4.67629L36.8955 4.68645L36.8898 4.69662L36.8798 4.70388L36.8697 4.71115L36.8626 4.72131L36.8569 4.73148L36.8468 4.73874L36.8311 4.77215L36.8153 4.80556L36.8053 4.81282C36.801 4.82008 36.665 5.00455 36.3959 5.36912C36.1268 5.73515 35.9823 5.92107 35.9608 5.92542C35.9393 5.93269 35.9092 5.96464 35.8706 6.02419C35.8334 6.0852 35.6058 6.32922 35.1864 6.75334C34.767 7.17747 34.3562 7.55657 33.9539 7.88919C33.5503 8.22326 33.3456 8.63286 33.3413 9.11944C33.3341 9.60312 33.3098 10.1507 33.2668 10.7622C33.2239 11.3737 33.1437 12.0331 33.0249 12.7419C32.9061 13.4508 32.7243 14.2525 32.4767 15.1473C32.2291 16.042 31.9285 16.9149 31.5735 17.7646C31.2185 18.6158 30.8477 19.3784 30.4612 20.0552C30.0748 20.7321 29.7198 21.3043 29.3977 21.7735C29.0756 22.2427 28.7478 22.6842 28.4143 23.0982C28.0808 23.5121 27.6599 23.9798 27.1504 24.4984C26.6393 25.0155 26.3588 25.2987 26.3115 25.3495C26.2614 25.3975 26.051 25.5761 25.6788 25.8855C25.3095 26.1978 24.9116 26.5101 24.485 26.8209C24.0613 27.1303 23.672 27.3888 23.317 27.5965C22.962 27.8042 22.534 28.041 22.033 28.3068C21.5349 28.5755 20.9952 28.8239 20.4141 29.0534C19.8329 29.2829 19.2203 29.4949 18.5761 29.691C17.932 29.8871 17.3079 30.0396 16.7052 30.1485C16.1026 30.2575 15.4212 30.3504 14.6569 30.426L13.5117 30.5407V30.5567H11.4161V30.5407L11.1427 30.5247C10.9595 30.5131 10.8092 30.5029 10.6918 30.4913C10.573 30.4797 10.1278 30.4202 9.35343 30.3112C8.57903 30.2023 7.97211 30.0933 7.53123 29.9844C7.09035 29.8755 6.43475 29.6678 5.56445 29.3627C4.69414 29.0577 3.94837 28.7483 3.32999 28.4361C2.71305 28.1267 2.32656 27.9306 2.1691 27.8463C2.01451 27.765 1.83988 27.6648 1.64663 27.5457L1.35605 27.3656L1.35033 27.3554L1.34031 27.3481L1.33029 27.3409L1.32313 27.3307L1.29021 27.3147L1.25729 27.2988L1.25156 27.2886L1.24154 27.2813L1.23152 27.2741L1.22436 27.2639L1.21864 27.2537L1.20862 27.2465H1.19287V27.1811L1.22579 27.1884L1.25872 27.1985L1.40329 27.2145C1.50063 27.2261 1.76401 27.2421 2.19344 27.2639C2.62287 27.2857 3.08092 27.2857 3.56331 27.2639C4.04714 27.2421 4.54098 27.1927 5.04627 27.1172C5.55156 27.0402 6.14847 26.9095 6.83555 26.725C7.52407 26.5391 8.15533 26.3198 8.73219 26.0641C9.30619 25.8071 9.71415 25.6153 9.95749 25.4875C10.198 25.3626 10.5658 25.1317 11.0597 24.7932L11.8012 24.2863L11.8083 24.2761L11.8183 24.2689L11.8284 24.2616L11.8341 24.2514L11.8412 24.2413L11.8513 24.234L11.8613 24.2268L11.867 24.2166L11.8999 24.2064L11.9329 24.1992L11.94 24.1657L11.95 24.1323L11.9601 24.1251L11.9658 24.1149L11.7081 24.0989C11.5364 24.0873 11.3689 24.0771 11.2086 24.0655C11.0468 24.0539 10.7949 24.006 10.4513 23.9188C10.1078 23.8317 9.73705 23.701 9.33912 23.5267C8.94118 23.3524 8.5547 23.1446 8.17823 22.905C7.80177 22.6653 7.5298 22.4649 7.36232 22.3066C7.19627 22.1497 6.98156 21.9275 6.71674 21.6384C6.45479 21.3479 6.2272 21.0502 6.03252 20.7451C5.83928 20.4401 5.65463 20.0872 5.47856 19.6877L5.21088 19.0922L5.19514 19.0428L5.17939 18.9934L5.16937 18.96L5.16222 18.9266L5.21088 18.9339L5.25955 18.9441L5.61455 18.9934C5.85073 19.0268 6.22147 19.037 6.72677 19.0269C7.23206 19.0152 7.58133 18.9934 7.77457 18.9615C7.96781 18.9281 8.08662 18.9063 8.12956 18.8961L8.19398 18.8801L8.27414 18.8642L8.3543 18.8482L8.36145 18.838L8.37147 18.8308L8.38149 18.8235L8.38722 18.8133L8.3228 18.7974L8.25839 18.7814L8.19398 18.7654L8.12956 18.7494L8.06515 18.7334C8.02221 18.7218 7.94634 18.7 7.83898 18.6681C7.73163 18.6347 7.44105 18.5156 6.96868 18.3079C6.4963 18.1002 6.11984 17.8983 5.83928 17.7022C5.55872 17.5046 5.29248 17.2897 5.03911 17.0573C4.78718 16.822 4.51092 16.5184 4.21032 16.148C3.90972 15.7776 3.64061 15.3462 3.40442 14.8553C3.16824 14.3644 2.99074 13.8952 2.87193 13.4479C2.75456 13.0034 2.67583 12.5488 2.64004 12.0898L2.58135 11.4028L2.61428 11.41L2.6472 11.4202L2.68012 11.4362L2.71305 11.4521L2.74597 11.4681L2.77889 11.4841L3.27846 11.7136C3.61198 11.8661 4.02566 11.9968 4.51951 12.1058C5.01335 12.2147 5.30965 12.2742 5.40699 12.2859L5.55156 12.3018H5.84214L5.83642 12.2917L5.8264 12.2844L5.81638 12.2771L5.80922 12.267L5.8035 12.2568L5.79348 12.2495L5.78345 12.2423L5.7763 12.2321L5.74338 12.2161L5.71045 12.2002L5.70473 12.19L5.69471 12.1827L5.68469 12.1755L5.67753 12.1653L5.64461 12.1493L5.61168 12.1334L5.60596 12.1232C5.5988 12.1188 5.50719 12.0491 5.32826 11.914C5.1522 11.776 4.96754 11.5988 4.77287 11.381C4.57963 11.1631 4.38638 10.9336 4.19171 10.6939C3.99847 10.4528 3.82526 10.1957 3.6764 9.92557C3.5261 9.6525 3.36721 9.30536 3.19973 8.88559C3.03369 8.46728 2.90772 8.0446 2.82183 7.61902C2.73595 7.19345 2.68728 6.77368 2.67726 6.35972C2.66581 5.94576 2.67726 5.59135 2.71018 5.2965C2.74311 5.00164 2.80752 4.66902 2.90343 4.29864C3.00076 3.92826 3.13961 3.53463 3.32283 3.12067L3.59624 2.49901L3.61198 2.44962L3.62773 2.40024L3.63775 2.39298L3.64347 2.38281L3.65063 2.37264L3.66065 2.36538L3.67067 2.37264L3.6764 2.38281L3.68355 2.39298L3.69357 2.40024L3.70359 2.4075L3.70932 2.41767L3.71648 2.42784L3.7265 2.4351L3.74224 2.46851L3.75799 2.50191L3.76801 2.50918L3.77373 2.51934L4.20889 3.01028C4.49947 3.33709 4.84301 3.70312 5.24094 4.10691C5.63888 4.5107 5.85932 4.71986 5.90226 4.73584C5.94521 4.75327 5.9996 4.80411 6.06401 4.8869C6.12843 4.96824 6.34314 5.16142 6.70959 5.46644C7.0746 5.77146 7.55413 6.12587 8.14531 6.52966C8.73649 6.93345 9.39208 7.33143 10.1121 7.7236C10.8321 8.11577 11.6065 8.47018 12.4339 8.78682C13.2612 9.10346 13.8424 9.30972 14.1759 9.40849C14.5094 9.50726 15.0791 9.63217 15.885 9.78468C16.6838 9.93574 17.2921 10.0345 17.7001 10.0781C18.108 10.1217 18.3886 10.1463 18.5389 10.1536L18.7651 10.1609L18.7593 10.1115L18.7493 10.0621L18.6849 9.6525C18.642 9.37944 18.6205 8.99743 18.6205 8.50649C18.6205 8.01555 18.6577 7.56238 18.7336 7.14842C18.8094 6.73446 18.9211 6.31469 19.0728 5.88911C19.2231 5.46353 19.3706 5.1222 19.5151 4.86511C19.6611 4.60947 19.8529 4.31897 20.0891 3.99071C20.3253 3.6639 20.6316 3.32547 21.0081 2.97688C21.3846 2.62828 21.814 2.31745 22.2978 2.04438C22.7816 1.77131 23.2282 1.56506 23.6362 1.42272C24.0442 1.28037 24.3891 1.18887 24.6683 1.14529C24.946 1.10026 25.0848 1.07557 25.0848 1.06976Z" fill="#5DA8DC" stroke="#5DA8DC" stroke-width="0.5"/>
</svg>
