<svg width="46" height="53" viewBox="0 0 46 53" fill="none" xmlns="http://www.w3.org/2000/svg">
<g clip-path="url(#clip0)">
<path d="M40.6114 0.943848H5.38883C2.41841 0.943848 0 3.33197 0 6.2913V41.387C0 44.3463 2.41823 46.7345 5.38865 46.7345H35.1966L33.8034 41.9321L37.168 45.0212L40.3485 47.9285L46 52.8606V6.2913C46 3.33197 43.5818 0.943848 40.6114 0.943848ZM30.4651 34.8457C30.4651 34.8457 29.5189 33.7293 28.7302 32.7429C32.1738 31.7824 33.488 29.6538 33.488 29.6538C32.4102 30.3548 31.3851 30.8481 30.4651 31.1852C29.1509 31.7305 27.8891 32.0938 26.6538 32.3016C24.1302 32.7688 21.8171 32.6391 19.8458 32.2757C18.3474 31.99 17.0594 31.5747 15.9818 31.1595C15.3771 30.9258 14.72 30.6403 14.0627 30.2769C13.984 30.2249 13.9051 30.199 13.8262 30.147C13.7738 30.1211 13.7474 30.0952 13.7211 30.0692C13.248 29.8096 12.9851 29.6279 12.9851 29.6279C12.9851 29.6279 14.2469 31.7046 17.5851 32.6909C16.7966 33.6775 15.824 34.8455 15.824 34.8455C10.0147 34.6638 7.80688 30.8999 7.80688 30.8999C7.80688 22.5413 11.592 15.7661 11.592 15.7661C15.3771 12.9625 18.9782 13.0404 18.9782 13.0404L19.2411 13.352C14.5098 14.7015 12.328 16.7525 12.328 16.7525C12.328 16.7525 12.9062 16.4411 13.8787 15.9998C16.6914 14.7796 18.9258 14.4423 19.8458 14.3644C20.0034 14.3383 20.1349 14.3124 20.2926 14.3124C22.0541 14.0858 23.8367 14.0684 25.6024 14.2606C28.0994 14.5461 30.7806 15.2729 33.5142 16.7525C33.5142 16.7525 31.4378 14.8057 26.9691 13.4558L27.3371 13.0406C27.3371 13.0406 30.9382 12.9625 34.7234 15.7662C34.7234 15.7662 38.5086 22.5413 38.5086 30.8999C38.5086 30.8999 36.2742 34.6638 30.4651 34.8455V34.8457ZM18.2422 22.723C16.744 22.723 15.5613 24.0209 15.5613 25.6042C15.5613 27.1878 16.7702 28.4857 18.2422 28.4857C19.7406 28.4857 20.9234 27.1878 20.9234 25.6042C20.9498 24.0209 19.7406 22.723 18.2424 22.723H18.2422ZM27.8366 22.723C26.3382 22.723 25.1553 24.0209 25.1553 25.6042C25.1553 27.1878 26.3646 28.4857 27.8366 28.4857C29.3349 28.4857 30.5176 27.1878 30.5176 25.6042C30.5176 24.0209 29.3349 22.723 27.8366 22.723Z" fill="#7289DA"/>
</g>
<defs>
<clipPath id="clip0">
<rect width="46" height="52" fill="white" transform="translate(0 0.939941)"/>
</clipPath>
</defs>
</svg>
