<svg width="60" height="60" viewBox="0 0 60 60" fill="none" xmlns="http://www.w3.org/2000/svg">
<path d="M29.884 0.939941C13.3816 0.939941 0 14.3192 0 30.8239C0 44.0277 8.56266 55.2294 20.4366 59.181C21.93 59.4575 22.4784 58.5327 22.4784 57.7433C22.4784 57.0308 22.4505 54.6765 22.4379 52.1795C14.1239 53.9872 12.3696 48.6535 12.3696 48.6535C11.0102 45.1993 9.05156 44.281 9.05156 44.281C6.34031 42.4262 9.25594 42.4642 9.25594 42.4642C12.2569 42.6751 13.837 45.5438 13.837 45.5438C16.5023 50.1125 20.828 48.7916 22.5333 48.0282C22.8014 46.0965 23.576 44.7784 24.4305 44.0321C17.793 43.2763 10.8152 40.7138 10.8152 29.2632C10.8152 26.0007 11.9827 23.3347 13.8945 21.242C13.5841 20.4892 12.5613 17.4498 14.1839 13.3335C14.1839 13.3335 16.6934 12.5303 22.4041 16.3967C24.7877 15.7344 27.3443 15.4025 29.884 15.3913C32.4237 15.4025 34.9821 15.7344 37.3704 16.3967C43.0744 12.5303 45.5803 13.3335 45.5803 13.3335C47.2069 17.4498 46.1836 20.4892 45.8733 21.242C47.7893 23.3347 48.9488 26.0005 48.9488 29.2632C48.9488 40.741 41.9578 43.2685 35.3034 44.0082C36.3752 44.9356 37.3303 46.7544 37.3303 49.5423C37.3303 53.5407 37.2956 56.7589 37.2956 57.7433C37.2956 58.5385 37.8335 59.4704 39.3485 59.177C51.2159 55.221 59.7677 44.0232 59.7677 30.8239C59.7677 14.3192 46.388 0.939941 29.884 0.939941Z" fill="white"/>
<path d="M11.1925 43.5104C11.1269 43.6588 10.893 43.7033 10.6804 43.6016C10.4636 43.5041 10.3417 43.3016 10.412 43.1525C10.4765 42.9997 10.7104 42.9571 10.9267 43.0597C11.144 43.157 11.2677 43.3614 11.1925 43.5104ZM12.6625 44.822C12.52 44.9542 12.2413 44.8928 12.0522 44.6839C11.8567 44.4756 11.8201 44.1971 11.9648 44.0628C12.1117 43.9309 12.3819 43.9925 12.5779 44.2011C12.7734 44.4118 12.8113 44.6886 12.6623 44.8222L12.6625 44.822ZM13.671 46.5001C13.4877 46.6274 13.1882 46.5081 13.0033 46.2423C12.8202 45.9767 12.8202 45.658 13.0073 45.5303C13.1929 45.4025 13.4877 45.5174 13.6752 45.781C13.858 46.0513 13.858 46.37 13.6708 46.5003L13.671 46.5001ZM15.3763 48.4438C15.2125 48.6242 14.8637 48.576 14.6083 48.3294C14.3472 48.0885 14.2743 47.7465 14.4386 47.5658C14.6043 47.3849 14.9552 47.4357 15.2125 47.6802C15.472 47.9207 15.5512 48.2652 15.3766 48.4438H15.3763ZM17.5804 49.1C17.5084 49.3339 17.1723 49.4403 16.8339 49.341C16.4959 49.2385 16.2747 48.9643 16.3429 48.7278C16.4132 48.4923 16.7507 48.3814 17.0917 48.4878C17.4292 48.5898 17.6509 48.8619 17.5806 49.1H17.5804ZM20.0892 49.3782C20.0976 49.6248 19.8105 49.8292 19.4552 49.8336C19.0977 49.8414 18.8088 49.6419 18.805 49.3996C18.805 49.1507 19.0856 48.9482 19.4427 48.9423C19.7981 48.9353 20.0892 49.1333 20.0892 49.3782ZM22.5534 49.2838C22.596 49.5242 22.349 49.7713 21.9963 49.8369C21.6494 49.9002 21.3283 49.7518 21.284 49.5135C21.2409 49.2669 21.4926 49.0201 21.8388 48.9561C22.1922 48.8947 22.5084 49.0393 22.5534 49.2838Z" fill="white"/>
</svg>
