<svg width="60" height="60" viewBox="0 0 60 60" fill="none" xmlns="http://www.w3.org/2000/svg">
<g clip-path="url(#clip0)">
<path d="M29.884 0.939941C13.3816 0.939941 0 14.3192 0 30.8239C0 44.0277 8.56266 55.2294 20.4366 59.181C21.93 59.4575 22.4784 58.5327 22.4784 57.7433C22.4784 57.0308 22.4505 54.6765 22.4379 52.1795C14.1239 53.9872 12.3696 48.6535 12.3696 48.6535C11.0102 45.1993 9.05156 44.281 9.05156 44.281C6.34031 42.4262 9.25594 42.4642 9.25594 42.4642C12.2569 42.6751 13.837 45.5438 13.837 45.5438C16.5023 50.1125 20.828 48.7916 22.5333 48.0282C22.8014 46.0965 23.576 44.7784 24.4305 44.0321C17.793 43.2763 10.8152 40.7138 10.8152 29.2632C10.8152 26.0007 11.9827 23.3347 13.8945 21.242C13.5841 20.4892 12.5613 17.4498 14.1839 13.3335C14.1839 13.3335 16.6934 12.5303 22.4041 16.3967C24.7877 15.7344 27.3443 15.4025 29.884 15.3913C32.4237 15.4025 34.9821 15.7344 37.3704 16.3967C43.0744 12.5303 45.5803 13.3335 45.5803 13.3335C47.2069 17.4498 46.1836 20.4892 45.8733 21.242C47.7893 23.3347 48.9488 26.0005 48.9488 29.2632C48.9488 40.741 41.9578 43.2685 35.3034 44.0082C36.3752 44.9356 37.3303 46.7544 37.3303 49.5423C37.3303 53.5407 37.2956 56.7589 37.2956 57.7433C37.2956 58.5385 37.8335 59.4704 39.3485 59.177C51.2159 55.221 59.7677 44.0232 59.7677 30.8239C59.7677 14.3192 46.388 0.939941 29.884 0.939941Z" fill="#161614"/>
<path d="M11.1926 43.5104C11.127 43.6588 10.8931 43.7033 10.6805 43.6016C10.4637 43.5041 10.3418 43.3016 10.4121 43.1525C10.4766 42.9997 10.7105 42.9571 10.9268 43.0597C11.1441 43.157 11.2678 43.3614 11.1926 43.5104ZM12.6626 44.822C12.5201 44.9542 12.2414 44.8928 12.0523 44.6839C11.8568 44.4756 11.8202 44.1971 11.9649 44.0628C12.1118 43.9309 12.382 43.9925 12.578 44.2011C12.7735 44.4118 12.8114 44.6886 12.6624 44.8222L12.6626 44.822ZM13.6711 46.5001C13.4878 46.6274 13.1883 46.5081 13.0034 46.2423C12.8203 45.9767 12.8203 45.658 13.0074 45.5303C13.193 45.4025 13.4878 45.5174 13.6753 45.781C13.8581 46.0513 13.8581 46.37 13.6709 46.5003L13.6711 46.5001ZM15.3764 48.4438C15.2126 48.6242 14.8638 48.576 14.6084 48.3294C14.3473 48.0885 14.2744 47.7465 14.4387 47.5658C14.6044 47.3849 14.9553 47.4357 15.2126 47.6802C15.4721 47.9207 15.5513 48.2652 15.3767 48.4438H15.3764ZM17.5805 49.1C17.5085 49.3339 17.1724 49.4403 16.834 49.341C16.496 49.2385 16.2748 48.9643 16.343 48.7278C16.4133 48.4923 16.7508 48.3814 17.0918 48.4878C17.4293 48.5898 17.651 48.8619 17.5807 49.1H17.5805ZM20.0893 49.3782C20.0977 49.6248 19.8106 49.8292 19.4553 49.8336C19.0978 49.8414 18.8089 49.6419 18.8051 49.3996C18.8051 49.1507 19.0857 48.9482 19.4428 48.9423C19.7982 48.9353 20.0893 49.1333 20.0893 49.3782ZM22.5535 49.2838C22.5961 49.5242 22.3491 49.7713 21.9964 49.8369C21.6495 49.9002 21.3284 49.7518 21.2841 49.5135C21.241 49.2669 21.4927 49.0201 21.8389 48.9561C22.1923 48.8947 22.5085 49.0393 22.5535 49.2838Z" fill="#161614"/>
</g>
<defs>
<clipPath id="clip0">
<rect width="60" height="58.368" fill="white" transform="translate(0 0.939941)"/>
</clipPath>
</defs>
</svg>
