<svg width="184" height="42" viewBox="0 0 184 42" fill="none" xmlns="http://www.w3.org/2000/svg">
<g clip-path="url(#clip0)">
<path d="M40.5961 38.9028C38.3507 38.9028 36.5926 38.3888 35.1321 36.9824L36.4302 35.6838C37.4853 36.7926 38.9189 37.2257 40.5691 37.2257C42.7599 37.2257 44.1126 36.4411 44.1126 34.8719C44.1126 33.7088 43.4359 33.0597 41.8941 32.9242L39.7034 32.7352C37.1065 32.5184 35.7273 31.3554 35.7273 29.1643C35.7273 26.7297 37.7829 25.269 40.623 25.269C42.5162 25.269 44.2204 25.729 45.4106 26.7023L44.1392 27.9736C43.1926 27.244 41.9757 26.9187 40.5957 26.9187C38.6483 26.9187 37.6205 27.7576 37.6205 29.1101C37.6205 30.2462 38.2695 30.9226 39.9467 31.0578L42.0835 31.2472C44.4098 31.4635 46.0054 32.356 46.0054 34.8449C46.0054 37.4148 43.8146 38.9028 40.5961 38.9028ZM51.9279 38.7407C49.6556 38.7407 48.5196 37.1441 48.5196 35.1698V27.0003H46.8427V25.5123H48.5196V21.3467H50.4674V25.5123H53.3072V27.0003H50.467V35.1156C50.467 36.3329 51.0352 37.0633 52.2794 37.0633H53.3072V38.7407H51.9279ZM63.379 32.5997H59.6462C57.6445 32.5997 56.6706 33.4116 56.6706 34.9531C56.6706 36.495 57.6175 37.2257 59.7274 37.2257C60.8634 37.2257 61.8639 37.1441 62.7027 36.3329C63.1627 35.9002 63.379 35.1425 63.379 34.0334V32.5997ZM63.379 38.7407V37.469C62.2969 38.5512 61.3234 38.9028 59.538 38.9028C57.6987 38.9028 56.6167 38.5512 55.7779 37.6858C55.1292 37.0359 54.7774 36.0353 54.7774 34.9801C54.7774 32.6539 56.4003 31.1386 59.3756 31.1386H63.379V29.8674C63.379 27.92 62.4051 26.946 59.9707 26.946C58.2669 26.946 57.4012 27.3522 56.6167 28.461L55.2913 27.2436C56.4815 25.7017 57.8339 25.269 59.998 25.269C63.568 25.269 65.3261 26.8109 65.3261 29.7049V38.7407H63.379ZM72.9538 38.9028C69.5998 38.9028 67.0572 36.6302 67.0572 32.0857C67.0572 27.5412 69.5998 25.269 72.9538 25.269C74.7931 25.269 75.9561 25.7556 77.3353 27.2436L76.0103 28.4879C75.0095 27.3788 74.225 27.0003 72.9538 27.0003C71.6554 27.0003 70.5737 27.5143 69.8704 28.5152C69.2483 29.3807 69.0047 30.409 69.0047 32.0857C69.0047 33.7627 69.2483 34.791 69.8704 35.6565C70.5737 36.6575 71.6554 37.1714 72.9538 37.1714C74.225 37.1714 75.0095 36.7657 76.0103 35.6565L77.3353 36.9281C75.9561 38.4154 74.7931 38.9028 72.9538 38.9028ZM87.9969 38.7407L83.7775 31.9232L81.181 34.8992V38.7407H79.2336V19.4795H81.1814V32.356L87.1858 25.4311H89.6202L85.1029 30.5168L90.4044 38.7403H87.9973L87.9969 38.7407ZM98.2592 28.8272C97.8747 28.4426 97.3619 28.2378 96.6956 28.2378C96.029 28.2378 95.542 28.4426 95.1575 28.8272C94.465 29.5194 94.3884 30.6728 94.3884 32.0577C94.3884 33.4421 94.465 34.6214 95.1575 35.3133C95.542 35.6978 96.029 35.9031 96.6956 35.9031C97.3619 35.9031 97.8747 35.6982 98.2592 35.3133C98.951 34.6214 99.0283 33.4421 99.0283 32.0577C99.0283 30.6728 98.951 29.5194 98.2592 28.8272ZM100.848 37.262C100.028 38.1336 98.6693 38.9028 96.6956 38.9028C94.7215 38.9028 93.3886 38.1336 92.5682 37.262C91.3635 36.0059 91.0559 34.4927 91.0559 32.0577C91.0559 29.6478 91.3635 28.135 92.5682 26.8785C93.3886 26.0069 94.7215 25.2377 96.6956 25.2377C98.6693 25.2377 100.028 26.0069 100.848 26.8785C102.053 28.135 102.361 29.6478 102.361 32.0577C102.361 34.4927 102.053 36.0059 100.848 37.262ZM109.85 38.7489H107.236L102.314 25.3912H105.826L108.543 33.647L111.235 25.3912H114.746L109.851 38.7486L109.85 38.7489ZM122.646 29.3911C122.287 28.5965 121.544 28.0067 120.415 28.0067C119.288 28.0067 118.544 28.5961 118.186 29.3911C117.98 29.8781 117.903 30.2368 117.878 30.827H122.954C122.928 30.2368 122.851 29.8781 122.646 29.3911ZM117.878 33.1086C117.878 34.8266 118.929 36.0824 120.8 36.0824C122.262 36.0824 122.979 35.6727 123.826 34.8262L125.851 36.8002C124.492 38.1588 123.184 38.9028 120.775 38.9028C117.622 38.9028 114.597 37.4672 114.597 32.0577C114.597 27.699 116.955 25.2377 120.415 25.2377C124.133 25.2377 126.235 27.9553 126.235 31.6217V33.1086H117.878ZM135.149 29.0321C134.637 28.5192 134.201 28.2378 133.381 28.2378C132.355 28.2378 131.227 29.0066 131.227 30.6987V38.7489H127.895V25.3912H131.151V26.6732C131.791 25.9041 133.073 25.2374 134.509 25.2374C135.816 25.2374 136.739 25.5705 137.662 26.4939L135.15 29.0317L135.149 29.0321ZM151.241 38.7489C148.498 38.7489 147.344 36.826 147.344 34.9287V19.9262H150.677V34.7235C150.677 35.5185 151.01 35.9286 151.856 35.9286H153.138V38.7489H151.241ZM143.299 27.9351V38.7489H139.966V27.9351H138.582V25.3977H139.966V23.7307C139.966 21.8337 141.145 19.9108 143.862 19.9108H145.76V22.7308H144.478C143.684 22.7308 143.299 23.1668 143.299 23.9359V25.3973H145.76V27.9351H143.299H143.299ZM160.819 28.8272C160.435 28.4426 159.922 28.2378 159.255 28.2378C158.589 28.2378 158.102 28.4426 157.717 28.8272C157.025 29.5194 156.948 30.6728 156.948 32.0577C156.948 33.4421 157.025 34.6214 157.717 35.3133C158.102 35.6978 158.589 35.9031 159.255 35.9031C159.922 35.9031 160.435 35.6982 160.819 35.3133C161.511 34.6214 161.588 33.4421 161.588 32.0577C161.588 30.6728 161.511 29.5194 160.819 28.8272ZM163.408 37.262C162.588 38.1336 161.229 38.9028 159.255 38.9028C157.282 38.9028 155.949 38.1336 155.128 37.262C153.924 36.0059 153.616 34.4927 153.616 32.0577C153.616 29.6478 153.924 28.135 155.129 26.8785C155.949 26.0069 157.281 25.2377 159.255 25.2377C161.229 25.2377 162.588 26.0069 163.408 26.8785C164.613 28.135 164.921 29.6478 164.921 32.0577C164.921 34.4927 164.613 36.0059 163.408 37.262ZM179.876 38.7489H177.133L174.339 30.3655L171.545 38.7489H168.802L164.7 25.3912H168.238L170.391 33.647L173.109 25.3912H175.544L178.287 33.647L180.44 25.3912H183.952L179.876 38.7486" fill="#252B33" fill-opacity="0.7"/>
<path d="M22.7402 27.2404L7.13431 23.455L7.89151 20.3335L23.4974 24.1189L22.7402 27.2404Z" fill="#B58F52"/>
<path d="M23.7863 23.5059L9.48679 16.1982L10.948 13.3376L25.2475 20.6457L23.7863 23.5059Z" fill="#C78431"/>
<path d="M25.9889 19.6375L13.896 9.07062L16.0087 6.6521L28.102 17.2182L25.9889 19.6371" fill="#E9812C"/>
<path d="M29.316 16.2368L20.2975 2.94881L22.9554 1.14453L31.9736 14.4333L29.3164 16.2372" fill="#E5712A"/>
<path d="M22.4904 31.1447L6.45581 30.2692L6.63083 27.0618L22.6654 27.9373L22.4904 31.1447Z" fill="#9D8469"/>
<path d="M25.815 38.6999V25.3928H29.0238L29.026 41.9123H0L0.00071875 25.3792H3.21245V38.6999H25.815Z" fill="#797B7B"/>
<path d="M6.41124 32.2883H22.5788V35.5004H6.41124V32.2887V32.2883Z" fill="#797B7B"/>
</g>
<defs>
<clipPath id="clip0">
<rect width="184" height="41" fill="white" transform="translate(0 0.939941)"/>
</clipPath>
</defs>
</svg>
