<svg width="16" height="15" viewBox="0 0 16 15" fill="none" xmlns="http://www.w3.org/2000/svg">
<path d="M15.0084 14.9999C15.4655 14.9999 15.8362 14.6292 15.8362 14.1721V0.827849C15.8362 0.370537 15.4655 0 15.0084 0H1.66404C1.20672 0 0.836182 0.370593 0.836182 0.827849V14.172C0.836182 14.6292 1.20672 14.9999 1.66404 14.9999H15.0084V14.9999Z" fill="white"/>
<path d="M11.1859 15V9.19127H13.1357L13.4276 6.92748H11.1859V5.48215C11.1859 4.82672 11.3679 4.38009 12.3078 4.38009L13.5065 4.37953V2.35482C13.2992 2.32728 12.5876 2.26562 11.7597 2.26562C10.0314 2.26562 8.84808 3.32058 8.84808 5.25801V6.92748H6.89331V9.19127H8.84808V15H11.1859V15Z" fill="#FEA250"/>
</svg>
