<svg width="31" height="31" viewBox="0 0 31 31" fill="none" xmlns="http://www.w3.org/2000/svg">
<path d="M29.2329 30.1045C30.1699 30.1045 30.9296 29.3754 30.9296 28.4764V2.2326C30.9296 1.33322 30.1698 0.604492 29.2329 0.604492H1.88095C0.943582 0.604492 0.184082 1.33333 0.184082 2.2326V28.4763C0.184082 29.3754 0.943582 30.1044 1.88095 30.1044H29.2329V30.1045Z" fill="#485A96"/>
<path d="M21.3977 30.1045V18.6806H25.3941L25.9925 14.2284H21.3976V11.3859C21.3976 10.0969 21.7706 9.21853 23.6972 9.21853L26.1542 9.21743V5.23547C25.7293 5.18131 24.2706 5.06006 22.5739 5.06006C19.0312 5.06006 16.6058 7.13482 16.6058 10.9451V14.2284H12.5991V18.6806H16.6058V30.1044H21.3977V30.1045Z" fill="white"/>
</svg>
