<svg width="31" height="30" viewBox="0 0 31 30" fill="none" xmlns="http://www.w3.org/2000/svg">
<path d="M15.461 0.520508C7.0246 0.520508 0.183594 7.28259 0.183594 15.6243C0.183594 22.2976 4.56103 27.9592 10.6312 29.9563C11.3947 30.0961 11.6751 29.6287 11.6751 29.2297C11.6751 28.8696 11.6608 27.6797 11.6544 26.4177C7.40407 27.3313 6.50723 24.6356 6.50723 24.6356C5.81229 22.8898 4.81097 22.4257 4.81097 22.4257C3.42491 21.4882 4.91545 21.5074 4.91545 21.5074C6.4496 21.614 7.25741 23.0639 7.25741 23.0639C8.61998 25.373 10.8313 24.7054 11.7031 24.3196C11.8402 23.3433 12.2362 22.6771 12.6731 22.2999C9.27982 21.9179 5.7126 20.6228 5.7126 14.8355C5.7126 13.1866 6.30941 11.8391 7.28677 10.7814C7.12813 10.401 6.60524 8.86481 7.43474 6.78436C7.43474 6.78436 8.71763 6.37841 11.6371 8.33259C12.8557 7.99783 14.1626 7.8301 15.461 7.82441C16.7593 7.8301 18.0673 7.99783 19.2882 8.33259C22.2042 6.37841 23.4853 6.78436 23.4853 6.78436C24.3169 8.86481 23.7937 10.401 23.6351 10.7814C24.6146 11.8391 25.2074 13.1865 25.2074 14.8355C25.2074 20.6365 21.6334 21.914 18.2315 22.2878C18.7795 22.7565 19.2677 23.6758 19.2677 25.0848C19.2677 27.1057 19.25 28.7322 19.25 29.2297C19.25 29.6316 19.525 30.1026 20.2995 29.9543C26.3664 27.9549 30.7383 22.2954 30.7383 15.6243C30.7383 7.28259 23.8982 0.520508 15.461 0.520508Z" fill="#161614"/>
<path d="M5.90528 22.0364C5.87173 22.1114 5.75215 22.1339 5.64348 22.0825C5.53264 22.0332 5.47034 21.9308 5.50628 21.8555C5.53923 21.7783 5.65881 21.7567 5.7694 21.8086C5.88047 21.8578 5.94374 21.9611 5.90528 22.0364ZM6.65677 22.6993C6.58392 22.7661 6.44146 22.7351 6.34477 22.6295C6.24484 22.5242 6.22615 22.3835 6.30007 22.3156C6.3752 22.2489 6.51335 22.2801 6.61352 22.3855C6.71344 22.492 6.73285 22.6319 6.65665 22.6994L6.65677 22.6993ZM7.17234 23.5474C7.07865 23.6117 6.92552 23.5514 6.83098 23.4171C6.73741 23.2829 6.73741 23.1218 6.83302 23.0573C6.92792 22.9927 7.07865 23.0507 7.1745 23.184C7.26796 23.3206 7.26796 23.4817 7.17222 23.5475L7.17234 23.5474ZM8.04414 24.5298C7.96038 24.621 7.78209 24.5966 7.65149 24.472C7.51802 24.3502 7.48075 24.1774 7.56475 24.086C7.64946 23.9946 7.82882 24.0203 7.96038 24.1439C8.09302 24.2654 8.13352 24.4395 8.04426 24.5298H8.04414ZM9.1709 24.8615C9.13411 24.9797 8.96229 25.0335 8.78928 24.9832C8.6165 24.9315 8.5034 24.7929 8.53826 24.6734C8.57421 24.5543 8.74674 24.4983 8.92108 24.5521C9.09362 24.6036 9.20696 24.7411 9.17102 24.8615H9.1709ZM10.4534 25.0021C10.4577 25.1267 10.311 25.23 10.1293 25.2322C9.94659 25.2361 9.79886 25.1353 9.79694 25.0128C9.79694 24.887 9.94036 24.7847 10.123 24.7817C10.3046 24.7782 10.4534 24.8783 10.4534 25.0021ZM11.7132 24.9543C11.735 25.0759 11.6087 25.2007 11.4284 25.2339C11.251 25.2659 11.0869 25.1909 11.0642 25.0704C11.0422 24.9458 11.1709 24.8211 11.3479 24.7887C11.5285 24.7577 11.6902 24.8308 11.7132 24.9543Z" fill="#161614"/>
</svg>
