<svg width="31" height="30" viewBox="0 0 31 30" fill="none" xmlns="http://www.w3.org/2000/svg">
<path d="M30.8406 15.1717C30.8406 13.9631 30.7362 13.0811 30.5104 12.1665H15.8257V17.6215H24.4453C24.2716 18.9771 23.3331 21.0187 21.2477 22.3906L21.2185 22.5732L25.8615 25.9536L26.1832 25.9838C29.1374 23.4196 30.8406 19.6467 30.8406 15.1717Z" fill="#4285F4"/>
<path d="M15.8259 29.5452C20.0488 29.5452 23.594 28.2385 26.1834 25.9846L21.2479 22.3913C19.9272 23.257 18.1545 23.8613 15.8259 23.8613C11.6898 23.8613 8.17938 21.2971 6.92801 17.7529L6.74459 17.7676L1.91665 21.2791L1.85352 21.4441C4.42551 26.2459 9.70858 29.5452 15.8259 29.5452Z" fill="#34A853"/>
<path d="M6.92783 17.7519C6.59765 16.8373 6.40656 15.8573 6.40656 14.8447C6.40656 13.832 6.59765 12.8521 6.91046 11.9375L6.90172 11.7427L2.01329 8.1748L1.85335 8.2463C0.793311 10.2389 0.185059 12.4765 0.185059 14.8447C0.185059 17.2129 0.793311 19.4504 1.85335 21.443L6.92783 17.7519Z" fill="#FBBC05"/>
<path d="M15.8259 5.82922C18.7628 5.82922 20.7439 7.0215 21.8736 8.01786L26.2877 3.96734C23.5768 1.59912 20.0488 0.145508 15.8259 0.145508C9.7086 0.145508 4.42551 3.44467 1.85352 8.24643L6.91065 11.9377C8.1794 8.39348 11.6898 5.82922 15.8259 5.82922Z" fill="#EB4335"/>
</svg>
