<svg width="16" height="15" viewBox="0 0 16 15" fill="none" xmlns="http://www.w3.org/2000/svg">
<path d="M15.9732 7.66642C15.9732 7.04979 15.9222 6.59982 15.8117 6.13318H8.62671V8.91634H12.8441C12.7591 9.608 12.3 10.6496 11.2796 11.3495L11.2653 11.4427L13.5371 13.1674L13.6945 13.1828C15.1399 11.8745 15.9732 9.94963 15.9732 7.66642" fill="white"/>
<path d="M8.62623 14.9992C10.6924 14.9992 12.427 14.3326 13.694 13.1826L11.2792 11.3493C10.6329 11.791 9.76561 12.0993 8.62623 12.0993C6.60253 12.0993 4.88494 10.7911 4.27266 8.98279L4.18292 8.99026L1.82069 10.7819L1.78979 10.866C3.04823 13.3159 5.63315 14.9992 8.62623 14.9992Z" fill="white"/>
<path d="M4.27227 8.98295C4.11072 8.51632 4.01722 8.0163 4.01722 7.49969C4.01722 6.98302 4.11072 6.48306 4.26377 6.01642L4.25949 5.91704L1.86767 4.09668L1.78941 4.13316C1.27075 5.14979 0.973145 6.29142 0.973145 7.49969C0.973145 8.70796 1.27075 9.84953 1.78941 10.8662L4.27227 8.98295" fill="white"/>
<path d="M8.62625 2.89986C10.0632 2.89986 11.0326 3.50816 11.5853 4.01651L13.7451 1.94992C12.4186 0.741638 10.6925 0 8.62625 0C5.63316 0 3.04823 1.68325 1.78979 4.13312L4.26417 6.0164C4.88494 4.20815 6.60254 2.89986 8.62625 2.89986" fill="white"/>
</svg>
