<svg width="62" height="59" viewBox="0 0 62 59" fill="none" xmlns="http://www.w3.org/2000/svg">
<path d="M41.0792 1.01416V1H43.8935L44.9212 1.24351C45.6056 1.40208 46.2275 1.60594 46.787 1.86361C47.3465 2.11845 47.8868 2.41576 48.4103 2.75554C48.9337 3.09532 49.4068 3.4436 49.8342 3.7947C50.2568 4.14298 50.6338 4.51391 50.97 4.90466C51.3014 5.30107 51.82 5.403 52.5236 5.21046C53.2272 5.01792 53.9836 4.75459 54.7952 4.41197C55.6068 4.06936 56.4088 3.68994 57.2036 3.26238C57.996 2.83765 58.4811 2.56583 58.654 2.45257C58.8245 2.33364 58.9133 2.26852 58.9253 2.26002L58.9349 2.2402L58.9902 2.20906L59.0454 2.17791L59.1006 2.14676L59.1558 2.11562L59.1678 2.0958L59.1847 2.08164L59.2015 2.06748L59.2111 2.04766L59.2663 2.02784L59.3215 2.01368L59.3119 2.10995L59.2951 2.20623L59.2687 2.3025L59.2423 2.39877L59.2159 2.46389L59.1895 2.52902L59.163 2.62529C59.1438 2.69041 59.127 2.77536 59.1078 2.88012C59.0886 2.98772 58.9181 3.41245 58.594 4.15714C58.2698 4.90182 57.864 5.65501 57.3765 6.42235C56.8891 7.18685 56.4544 7.76731 56.0678 8.15806C55.6788 8.55447 55.4195 8.82913 55.2946 8.9877C55.1674 9.14909 55.0161 9.29916 54.836 9.43508L54.5647 9.64461L54.5094 9.67575L54.4542 9.7069L54.4446 9.72672L54.4278 9.74088L54.411 9.75504L54.399 9.77486L54.3437 9.806L54.2885 9.83715L54.2789 9.85697L54.2621 9.87113L54.2453 9.88529L54.2333 9.90511L54.2237 9.92493L54.2069 9.93908L54.1901 9.95324L54.1781 9.97306H54.4494L55.9646 9.59081C56.9755 9.33597 57.9384 9.02734 58.8581 8.6649L60.318 8.09011L60.4813 8.02498L60.563 7.99383L60.6182 7.96269L60.6734 7.93154L60.7287 7.9004L60.7839 7.86925L60.8919 7.84943L61 7.83527V7.96269L60.9736 7.97685L60.9472 7.99667L60.9376 8.01649L60.9208 8.03065L60.904 8.0448L60.8919 8.06462L60.8823 8.08444L60.8655 8.0986L60.8487 8.11276L60.8367 8.13258L60.8271 8.1524L60.8103 8.16656L60.7839 8.23168L60.7575 8.29681L60.7407 8.31096C60.7335 8.32512 60.5053 8.68472 60.0539 9.39543C59.6025 10.109 59.3599 10.4714 59.3239 10.4799C59.2879 10.4941 59.2375 10.5564 59.1726 10.6724C59.1102 10.7914 58.7284 11.2671 58.0249 12.0939C57.3213 12.9207 56.6321 13.6597 55.9574 14.3081C55.2802 14.9594 54.9368 15.7578 54.9296 16.7064C54.9176 17.6493 54.8768 18.7168 54.8048 19.9088C54.7327 21.1009 54.5983 22.3864 54.399 23.7682C54.1997 25.15 53.8947 26.713 53.4793 28.4572C53.0639 30.2014 52.5596 31.9031 51.9641 33.5596C51.3686 35.2188 50.7467 36.7054 50.0983 38.0249C49.45 39.3443 48.8545 40.46 48.3142 41.3745C47.7739 42.2891 47.224 43.1499 46.6645 43.9569C46.1051 44.7639 45.3991 45.6756 44.5442 46.6864C43.687 47.6945 43.2164 48.2466 43.1371 48.3457C43.0531 48.4392 42.7001 48.7874 42.0758 49.3905C41.4562 49.9993 40.7887 50.6081 40.0731 51.214C39.3623 51.8171 38.7092 52.3212 38.1137 52.7261C37.5182 53.131 36.8002 53.5925 35.9598 54.1107C35.1241 54.6345 34.2189 55.1187 33.244 55.5661C32.2691 56.0135 31.2413 56.4268 30.1608 56.8091C29.0802 57.1914 28.0333 57.4887 27.0223 57.701C26.0114 57.9134 24.8684 58.0946 23.5861 58.2419L21.6651 58.4655V58.4967H18.1497V58.4655L17.6911 58.4344C17.3837 58.4117 17.1316 58.3919 16.9347 58.3693C16.7354 58.3466 15.9886 58.2305 14.6895 58.0182C13.3904 57.8058 12.3723 57.5934 11.6327 57.3811C10.8931 57.1687 9.79337 56.7638 8.33341 56.1692C6.87346 55.5746 5.6224 54.9715 4.58506 54.3627C3.55013 53.7596 2.90179 53.3773 2.63765 53.2131C2.37832 53.0545 2.08536 52.8591 1.7612 52.627L1.27374 52.2759L1.26414 52.256L1.24733 52.2419L1.23052 52.2277L1.21851 52.2079L1.16328 52.1767L1.10806 52.1456L1.09845 52.1258L1.08164 52.1116L1.06483 52.0975L1.05283 52.0776L1.04322 52.0578L1.02641 52.0437H1V51.9162L1.05523 51.9304L1.11046 51.9502L1.35298 51.9814C1.51627 52.004 1.9581 52.0352 2.67847 52.0776C3.39885 52.1201 4.16725 52.1201 4.97647 52.0776C5.78809 52.0352 6.61652 51.9389 7.46416 51.7917C8.3118 51.6416 9.31312 51.3868 10.4657 51.0272C11.6207 50.6647 12.6797 50.2372 13.6474 49.7388C14.6103 49.2376 15.2946 48.8639 15.7028 48.6147C16.1063 48.3712 16.7234 47.921 17.5518 47.2612L18.7957 46.273L18.8077 46.2532L18.8245 46.2391L18.8413 46.2249L18.8509 46.2051L18.8629 46.1853L18.8797 46.1711L18.8965 46.157L18.9061 46.1371L18.9613 46.1173L19.0166 46.1032L19.0286 46.038L19.0454 45.9729L19.0622 45.9588L19.0718 45.9389L18.6396 45.9078C18.3514 45.8851 18.0705 45.8653 17.8015 45.8427C17.5302 45.82 17.1076 45.7266 16.5313 45.5567C15.955 45.3868 15.3331 45.132 14.6655 44.7922C13.998 44.4524 13.3496 44.0475 12.7181 43.5803C12.0866 43.1131 11.6303 42.7223 11.3494 42.4137C11.0708 42.1079 10.7107 41.6747 10.2664 41.1112C9.82699 40.5449 9.44519 39.9644 9.11862 39.3698C8.79445 38.7752 8.48469 38.0871 8.18934 37.3085L7.74031 36.1476L7.71389 36.0513L7.68748 35.955L7.67067 35.8899L7.65866 35.8248L7.74031 35.8389L7.82195 35.8587L8.41746 35.955C8.81366 36.0201 9.43559 36.04 10.2832 36.0201C11.1309 35.9975 11.7168 35.955 12.0409 35.8927C12.3651 35.8276 12.5644 35.7851 12.6365 35.7653L12.7445 35.7342L12.879 35.703L13.0134 35.6719L13.0255 35.652L13.0423 35.6379L13.0591 35.6237L13.0687 35.6039L12.9606 35.5728L12.8526 35.5416L12.7445 35.5105L12.6365 35.4793L12.5284 35.4482C12.4564 35.4255 12.3291 35.3831 12.149 35.3208C11.9689 35.2556 11.4815 35.0235 10.689 34.6185C9.89663 34.2136 9.2651 33.8201 8.79445 33.4378C8.32381 33.0527 7.87718 32.6337 7.45216 32.1806C7.02954 31.7219 6.56609 31.1301 6.06183 30.4081C5.55757 29.686 5.10614 28.8451 4.70993 27.888C4.31372 26.931 4.01597 26.0164 3.81666 25.1443C3.61976 24.2779 3.48769 23.3916 3.42766 22.4968L3.32921 21.1575L3.38444 21.1717L3.43967 21.1915L3.4949 21.2227L3.55013 21.2538L3.60535 21.285L3.66058 21.3161L4.49862 21.7635C5.05811 22.0608 5.75207 22.3156 6.5805 22.528C7.40893 22.7403 7.90599 22.8564 8.06928 22.8791L8.3118 22.9102H8.79926L8.78965 22.8904L8.77284 22.8763L8.75603 22.8621L8.74403 22.8423L8.73442 22.8225L8.71761 22.8083L8.7008 22.7941L8.6888 22.7743L8.63357 22.7432L8.57834 22.712L8.56874 22.6922L8.55193 22.6781L8.53512 22.6639L8.52311 22.6441L8.46788 22.6129L8.41266 22.5818L8.40305 22.562C8.39104 22.5535 8.23736 22.4176 7.93721 22.1542C7.64185 21.8852 7.33209 21.5398 7.00552 21.1151C6.68136 20.6903 6.35719 20.243 6.03062 19.7758C5.70645 19.3057 5.4159 18.8045 5.16617 18.2779C4.91404 17.7456 4.6475 17.0688 4.36655 16.2505C4.08801 15.435 3.8767 14.6111 3.73262 13.7814C3.58855 12.9518 3.5069 12.1335 3.4901 11.3265C3.47089 10.5195 3.49009 9.82865 3.54532 9.25386C3.60055 8.67906 3.70861 8.03065 3.86949 7.30861C4.03278 6.58657 4.2657 5.81923 4.57306 5.01225L5.0317 3.80037L5.05811 3.70409L5.08452 3.60782L5.10133 3.59367L5.11094 3.57385L5.12294 3.55402L5.13975 3.53987L5.15656 3.55402L5.16617 3.57385L5.17817 3.59367L5.19498 3.60782L5.21179 3.62198L5.22139 3.6418L5.2334 3.66162L5.25021 3.67578L5.27662 3.7409L5.30304 3.80603L5.31985 3.82019L5.32945 3.84001L6.05943 4.79706C6.54688 5.43415 7.12318 6.14769 7.79073 6.93485C8.45828 7.72201 8.82807 8.12975 8.90011 8.16089C8.97215 8.19487 9.06339 8.29398 9.17145 8.45537C9.27951 8.61394 9.63969 8.99053 10.2544 9.58515C10.8667 10.1798 11.6711 10.8707 12.6629 11.6578C13.6546 12.445 14.7544 13.2208 15.9622 13.9853C17.17 14.7498 18.4691 15.4407 19.857 16.058C21.2449 16.6753 22.2198 17.0773 22.7793 17.2699C23.3388 17.4624 24.2945 17.7059 25.6464 18.0032C26.9863 18.2977 28.0068 18.4903 28.6912 18.5752C29.3756 18.6601 29.8462 18.7083 30.0983 18.7224L30.4777 18.7366L30.4681 18.6403L30.4513 18.5441L30.3433 17.7456C30.2712 17.2132 30.2352 16.4686 30.2352 15.5115C30.2352 14.5544 30.2976 13.671 30.4249 12.864C30.5522 12.0571 30.7395 11.2387 30.994 10.4091C31.2461 9.57948 31.4935 8.91408 31.736 8.4129C31.9809 7.91455 32.3027 7.34825 32.6989 6.70833C33.0951 6.07124 33.609 5.4115 34.2405 4.73193C34.872 4.05237 35.5924 3.44643 36.404 2.9141C37.2156 2.38178 37.9648 1.9797 38.6492 1.70221C39.3335 1.42473 39.9122 1.24634 40.3805 1.1614C40.8463 1.07362 41.0792 1.02548 41.0792 1.01416Z" fill="white" stroke="white" stroke-width="0.5"/>
</svg>
