<svg width="63" height="62" viewBox="0 0 63 62" fill="none" xmlns="http://www.w3.org/2000/svg">
<g clip-path="url(#clip0)">
<path d="M31.2 0C14.122 0 0.275391 13.8466 0.275391 30.9246C0.275391 44.59 9.13529 56.1792 21.4247 60.2674C22.9705 60.5506 23.5349 59.5955 23.5349 58.7801C23.5349 58.0439 23.5066 55.6054 23.4915 53.0233C14.8921 54.8919 13.0744 49.3767 13.0744 49.3767C11.6664 45.8055 9.64107 44.8542 9.64107 44.8542C6.83062 42.9366 9.85428 42.9743 9.85428 42.9743C12.9592 43.1895 14.5938 46.1604 14.5938 46.1604C17.3534 50.8867 21.8342 49.5201 23.5934 48.7274C23.8745 46.7342 24.6748 45.3676 25.5564 44.5975C18.6916 43.8162 11.4701 41.1623 11.4701 29.3126C11.4701 25.934 12.6762 23.1783 14.6505 21.0134C14.3353 20.2282 13.2707 17.0817 14.9562 12.8255C14.9562 12.8255 17.5497 11.995 23.4612 15.9965C25.9263 15.3076 28.5707 14.9678 31.1999 14.9564C33.8273 14.9678 36.4735 15.3113 38.9424 16.0002C44.8427 11.995 47.4399 12.8292 47.4399 12.8292C49.1311 17.0893 48.0666 20.2319 47.7495 21.0134C49.7313 23.1783 50.928 25.9341 50.928 29.3126C50.928 41.1925 43.6951 43.8085 36.8058 44.5749C37.9195 45.5337 38.9047 47.4137 38.9047 50.2978C38.9047 54.4314 38.8632 57.7647 38.8632 58.7839C38.8632 59.6068 39.4256 60.5694 40.9923 60.2674C53.2723 56.1716 62.1246 44.5825 62.1246 30.9246C62.1246 13.8466 48.278 0 31.2 0Z" fill="white"/>
</g>
<defs>
<clipPath id="clip0">
<rect width="61.8492" height="61.8492" fill="white" transform="translate(0.275391)"/>
</clipPath>
</defs>
</svg>
