<svg width="63" height="62" viewBox="0 0 63 62" fill="none" xmlns="http://www.w3.org/2000/svg">
<circle cx="31.4754" cy="30.9246" r="30.9246" fill="white"/>
<path d="M46.9378 31.9153C46.9378 40.37 41.0531 46.3868 32.3627 46.3868C24.0306 46.3868 17.3018 39.7665 17.3018 31.5688C17.3018 23.371 24.0306 16.7507 32.3627 16.7507C36.4195 16.7507 39.8325 18.2146 42.462 20.6285L38.3628 24.5063C33.0004 19.4156 23.0286 23.2396 23.0286 31.5688C23.0286 36.7372 27.225 40.9256 32.3627 40.9256C38.3264 40.9256 40.5612 36.7192 40.9134 34.5383H32.3627V29.4417H46.701C46.8407 30.2005 46.9378 30.9294 46.9378 31.9153Z" fill="#002C39"/>
</svg>
