<svg width="62" height="63" viewBox="0 0 62 63" fill="none" xmlns="http://www.w3.org/2000/svg">
<circle cx="30.9803" cy="31.8001" r="30.9246" fill="white"/>
<path d="M46.4426 32.7909C46.4426 41.2456 40.5579 47.2624 31.8675 47.2624C23.5354 47.2624 16.8065 40.6421 16.8065 32.4444C16.8065 24.2467 23.5354 17.6263 31.8675 17.6263C35.9242 17.6263 39.3372 19.0902 41.9668 21.5041L37.8676 25.3819C32.5051 20.2912 22.5333 24.1152 22.5333 32.4444C22.5333 37.6128 26.7297 41.8012 31.8675 41.8012C37.8311 41.8012 40.066 37.5948 40.4182 35.414H31.8675V30.3173H46.2057C46.3454 31.0761 46.4426 31.805 46.4426 32.7909Z" fill="#002C39"/>
</svg>
