<svg width="63" height="63" viewBox="0 0 63 63" fill="none" xmlns="http://www.w3.org/2000/svg">
<g clip-path="url(#clip0)">
<path d="M31.7049 0.875488C14.6269 0.875488 0.780273 14.7221 0.780273 31.8001C0.780273 45.4655 9.64017 57.0547 21.9296 61.1429C23.4754 61.4261 24.0398 60.471 24.0398 59.6556C24.0398 58.9194 24.0115 56.4809 23.9964 53.8988C15.397 55.7674 13.5793 50.2522 13.5793 50.2522C12.1713 46.681 10.146 45.7297 10.146 45.7297C7.3355 43.812 10.3592 43.8498 10.3592 43.8498C13.4641 44.0649 15.0987 47.0359 15.0987 47.0359C17.8583 51.7621 22.3391 50.3956 24.0983 49.6029C24.3794 47.6097 25.1797 46.2431 26.0612 45.473C19.1965 44.6916 11.975 42.0378 11.975 30.1881C11.975 26.8095 13.1811 24.0538 15.1554 21.8889C14.8402 21.1037 13.7756 17.9572 15.4611 13.701C15.4611 13.701 18.0546 12.8705 23.9661 16.872C26.4311 16.183 29.0756 15.8433 31.7048 15.8319C34.3322 15.8433 36.9784 16.1868 39.4473 16.8757C45.3476 12.8705 47.9448 13.7047 47.9448 13.7047C49.636 17.9648 48.5714 21.1074 48.2544 21.8889C50.2362 24.0538 51.4329 26.8096 51.4329 30.1881C51.4329 42.068 44.2 44.684 37.3107 45.4504C38.4244 46.4092 39.4096 48.2892 39.4096 51.1732C39.4096 55.3069 39.3681 58.6401 39.3681 59.6594C39.3681 60.4823 39.9305 61.4449 41.4971 61.1429C53.7772 57.0471 62.6295 45.4579 62.6295 31.8001C62.6295 14.7221 48.7828 0.875488 31.7049 0.875488Z" fill="white"/>
</g>
<defs>
<clipPath id="clip0">
<rect width="61.8492" height="61.8492" fill="white" transform="translate(0.780273 0.875488)"/>
</clipPath>
</defs>
</svg>
