<svg width="305" height="712" viewBox="0 0 305 712" fill="none" xmlns="http://www.w3.org/2000/svg">
<mask id="path-1-inside-1" fill="white">
<path fill-rule="evenodd" clip-rule="evenodd" d="M175.074 602.941C175.074 602.941 336.842 496.599 298.985 275.353C262.491 114.499 176.427 61.7793 166.964 41.501C156.603 27.082 146.686 1.85254 146.686 1.85254L153.448 449.284C153.448 449.738 139.479 586.267 175.079 602.946"/>
</mask>
<path d="M298.985 275.353L328.556 270.294L328.42 269.501L328.242 268.716L298.985 275.353ZM166.964 41.501L194.15 28.8148L192.963 26.2726L191.326 23.9944L166.964 41.501ZM146.686 1.85254L174.606 -9.12221L116.689 2.30592L146.686 1.85254ZM153.448 449.284H183.448V449.057L183.445 448.831L153.448 449.284ZM175.074 602.941C191.554 628.01 191.567 628.001 191.582 627.992C191.587 627.988 191.602 627.978 191.613 627.971C191.636 627.956 191.66 627.939 191.688 627.921C191.742 627.885 191.807 627.842 191.881 627.793C192.029 627.693 192.216 627.567 192.441 627.414C192.889 627.108 193.488 626.694 194.225 626.172C195.698 625.128 197.728 623.65 200.223 621.734C205.209 617.905 212.074 612.313 220.086 604.933C236.079 590.199 256.828 568.163 276.283 538.611C315.471 479.087 348.968 389.589 328.556 270.294L269.415 280.413C286.859 382.364 258.401 456.659 226.169 505.618C209.915 530.307 192.588 548.685 179.432 560.804C172.869 566.85 167.393 571.295 163.68 574.146C161.825 575.57 160.416 576.593 159.539 577.214C159.1 577.525 158.795 577.735 158.634 577.845C158.553 577.9 158.509 577.93 158.502 577.934C158.498 577.937 158.504 577.933 158.52 577.923C158.527 577.917 158.537 577.911 158.55 577.902C158.556 577.898 158.567 577.891 158.571 577.889C158.582 577.881 158.595 577.873 175.074 602.941ZM328.242 268.716C308.959 183.725 276.324 126.455 246.711 87.5433C232.001 68.214 218.245 53.6939 208.016 43.1185C202.697 37.6193 199.008 33.8712 196.145 30.6934C192.839 27.0238 193.251 26.89 194.15 28.8148L139.778 54.1872C143.042 61.1816 148.214 67.1311 151.568 70.8543C155.366 75.0694 160.238 80.0236 164.889 84.8319C174.599 94.8714 186.414 107.387 198.965 123.879C223.874 156.61 252.517 206.128 269.729 281.991L328.242 268.716ZM191.326 23.9944C187.857 19.1672 183.747 11.3661 180.138 3.611C178.439 -0.0385425 177.026 -3.29637 176.043 -5.62948C175.553 -6.79081 175.176 -7.70937 174.93 -8.31672C174.807 -8.62005 174.717 -8.84471 174.662 -8.98206C174.634 -9.05071 174.616 -9.09745 174.606 -9.12119C174.602 -9.13306 174.599 -9.13917 174.599 -9.13939C174.599 -9.1395 174.6 -9.13814 174.601 -9.13528C174.601 -9.13385 174.602 -9.13205 174.603 -9.12987C174.603 -9.12879 174.604 -9.12687 174.604 -9.12633C174.605 -9.12432 174.606 -9.12221 146.686 1.85254C118.765 12.8273 118.766 12.8296 118.767 12.832C118.767 12.8329 118.768 12.8354 118.769 12.8373C118.77 12.841 118.772 12.8451 118.774 12.8496C118.777 12.8585 118.781 12.8691 118.786 12.8812C118.796 12.9053 118.808 12.9356 118.822 12.9719C118.851 13.0445 118.889 13.1412 118.937 13.2609C119.033 13.5001 119.166 13.8316 119.334 14.2463C119.67 15.075 120.149 16.2401 120.751 17.6694C121.951 20.5174 123.665 24.4681 125.741 28.9283C129.68 37.3927 135.709 49.4158 142.602 59.0075L191.326 23.9944ZM116.689 2.30592L123.452 449.738L183.445 448.831L176.682 1.39916L116.689 2.30592ZM123.448 449.284C123.448 447.503 123.682 445.358 123.561 446.695C123.558 446.723 123.552 446.786 123.539 446.936C123.513 447.208 123.473 447.634 123.423 448.183C123.323 449.285 123.183 450.873 123.018 452.881C122.689 456.892 122.264 462.575 121.871 469.421C121.089 483.045 120.416 501.568 120.924 520.822C121.424 539.767 123.095 560.873 127.535 579.074C129.756 588.176 132.955 597.778 137.837 606.381C142.674 614.903 150.342 624.486 162.351 630.112L187.807 575.78C190.916 577.237 191.233 578.905 190.019 576.766C188.852 574.708 187.302 570.904 185.825 564.853C182.873 552.75 181.36 536.568 180.903 519.239C180.454 502.219 181.048 485.483 181.772 472.859C182.133 466.581 182.521 461.393 182.817 457.786C182.965 455.984 183.09 454.576 183.177 453.62C183.22 453.14 183.255 452.772 183.28 452.499C183.291 452.377 183.305 452.23 183.316 452.113C183.32 452.062 183.331 451.948 183.341 451.819C183.346 451.763 183.358 451.617 183.371 451.435C183.378 451.337 183.394 451.091 183.403 450.941C183.416 450.681 183.443 449.853 183.448 449.284H123.448Z" fill="white" mask="url(#path-1-inside-1)"/>
<path d="M161.658 814.638C161.686 815.834 161.713 816.925 161.738 817.897L158.215 815.261C158.259 814.618 158.315 813.759 158.38 812.711C158.535 810.219 158.737 806.654 158.929 802.355C159.314 793.761 159.66 782.215 159.503 770.437C159.346 758.682 158.686 746.596 157.033 736.96C156.208 732.15 155.116 727.834 153.656 724.437C152.427 721.578 150.782 719.006 148.485 717.543C148.44 717.329 148.391 717.068 148.339 716.756C148.193 715.877 148.046 714.727 147.9 713.304C147.609 710.46 147.333 706.628 147.074 701.897C146.556 692.44 146.113 679.487 145.747 663.853C145.015 632.591 144.597 590.678 144.515 544.715C144.351 452.784 145.534 344.72 148.252 273.355C149.576 238.558 151.26 212.722 153.286 201.655C153.54 202.842 153.804 204.246 154.078 205.884C154.761 209.976 155.475 215.377 156.22 222.204C162.179 276.836 169.868 420.797 179.467 706.876C179.041 707.356 178.453 708.046 177.75 708.936C176.298 710.775 174.353 713.476 172.336 716.971C168.307 723.957 163.972 734.148 162.754 746.975C161.456 759.294 161.245 778.361 161.351 794.25C161.404 802.219 161.538 809.425 161.658 814.638Z" fill="white" stroke="white" stroke-width="5"/>
<path d="M15.3674 323.413L15.3684 323.394L15.3692 323.376C23.1257 158.007 114.639 72.0346 141.698 49.6933C141.805 52.0917 141.909 54.5613 142.009 57.0978C143.183 86.7823 143.886 124.926 144.336 163.618C144.76 200.053 144.959 237.147 145.124 267.895C145.306 301.939 145.447 328.203 145.805 337.175C147.811 400.819 146.023 462.226 142.457 510.65C140.674 534.877 138.455 555.719 136.074 571.881C135.49 575.844 134.907 579.442 134.335 582.679C132.837 581.392 131.264 580.018 129.623 578.555C116.093 566.492 98.1017 548.543 80.3914 525.12C44.9569 478.255 11.0852 410.109 15.3674 323.413Z" stroke="white" stroke-width="30"/>
</svg>
