<svg width="20" height="20" viewBox="0 0 20 20" fill="none" xmlns="http://www.w3.org/2000/svg">
<path d="M18.0575 15.4132C16.9909 15.3856 16.1644 15.4961 15.4711 15.7999C15.2711 15.8826 14.9511 15.8827 14.9245 16.1451C15.0311 16.2556 15.0445 16.4351 15.1378 16.5869C15.2979 16.863 15.5777 17.2359 15.8311 17.4292C16.111 17.6501 16.391 17.871 16.6842 18.0643C17.2042 18.3957 17.7908 18.5889 18.2974 18.9204C18.5908 19.1136 18.8839 19.3623 19.1773 19.5694C19.3239 19.6796 19.4172 19.8593 19.6039 19.9283V19.8869C19.5105 19.7626 19.4838 19.5831 19.3906 19.4451C19.2574 19.3069 19.1239 19.1826 18.9906 19.0446C18.604 18.5062 18.1241 18.0366 17.6042 17.6501C17.1776 17.3463 16.2443 16.9321 16.0711 16.4211C16.0711 16.4211 16.0577 16.4074 16.0444 16.3936C16.3376 16.366 16.6842 16.2556 16.9643 16.1727C17.4175 16.0484 17.8308 16.076 18.2974 15.9517C18.5107 15.8965 18.724 15.8274 18.9373 15.7584V15.6342C18.6974 15.3856 18.5241 15.0543 18.2708 14.8196C17.5908 14.2119 16.8442 13.6182 16.0711 13.1212C15.6577 12.845 15.1244 12.6655 14.6845 12.4308C14.5246 12.3479 14.2579 12.3065 14.1646 12.1684C13.9246 11.8647 13.7913 11.4644 13.618 11.1053C13.2315 10.3458 12.8581 9.50357 12.5248 8.70286C12.2849 8.16429 12.1383 7.62571 11.845 7.12875C10.4718 4.78144 8.97864 3.35926 6.68569 1.96461C6.19237 1.67471 5.60579 1.55042 4.97922 1.3986C4.64605 1.38471 4.31265 1.35718 3.9794 1.34329C3.76607 1.24662 3.55275 0.984328 3.36608 0.86005C2.60633 0.362919 0.646458 -0.713953 0.0865492 0.708226C-0.273442 1.60566 0.619869 2.48929 0.926374 2.94506C1.15319 3.26259 1.44636 3.62155 1.60636 3.98059C1.69969 4.21519 1.72628 4.46391 1.81961 4.71239C2.03302 5.31976 2.23286 5.99648 2.51293 6.56266C2.65959 6.85256 2.81951 7.15629 3.00617 7.41864C3.11283 7.5705 3.29942 7.63957 3.33949 7.88807C3.15291 8.16429 3.1395 8.57857 3.03276 8.92371C2.55285 10.484 2.73959 12.417 3.41942 13.563C3.63266 13.9081 4.13932 14.6677 4.81922 14.3776C5.41921 14.1291 5.28588 13.3421 5.45906 12.6518C5.49921 12.4859 5.47254 12.3756 5.55246 12.2651V12.2928C5.73913 12.6793 5.92571 13.0522 6.09904 13.4388C6.51236 14.1153 7.23222 14.8196 7.83208 15.2891C8.15215 15.5375 8.40539 15.9656 8.80539 16.1174V16.0759H8.77864C8.69864 15.9516 8.57864 15.8965 8.47208 15.7998C8.23215 15.5514 7.96539 15.2476 7.77884 14.9714C7.21898 14.1981 6.72562 13.3421 6.28571 12.4584C6.07245 12.0304 5.88571 11.5609 5.71246 11.1329C5.63239 10.9671 5.63239 10.7186 5.49913 10.6359C5.29914 10.9396 5.00589 11.2019 4.85922 11.5747C4.60605 12.1684 4.57931 12.9002 4.48598 13.6596C4.43264 13.6736 4.45924 13.6596 4.43257 13.6874C4.00606 13.5767 3.8594 13.1212 3.69933 12.7345C3.29934 11.7542 3.23268 10.1801 3.57941 9.048C3.67274 8.758 4.07273 7.84671 3.91273 7.57057C3.83274 7.30821 3.566 7.15629 3.41942 6.94923C3.24616 6.68686 3.05942 6.3556 2.93951 6.06553C2.61951 5.29229 2.45952 4.43621 2.11293 3.66298C1.95294 3.30394 1.6731 2.93126 1.44636 2.59984C1.19311 2.22707 0.913119 1.96461 0.713126 1.52281C0.646535 1.37099 0.553127 1.12242 0.659791 0.956714C0.686457 0.846236 0.739712 0.804893 0.84645 0.777271C1.01978 0.625292 1.51311 0.818621 1.68628 0.901471C2.1796 1.10845 2.59284 1.30194 3.00617 1.59185C3.19275 1.72994 3.39275 1.99231 3.63266 2.06136H3.91266C4.33931 2.15794 4.81915 2.08898 5.21914 2.21318C5.92579 2.44786 6.56562 2.79309 7.13891 3.16593C8.88539 4.31193 10.325 5.94124 11.2984 7.88807C11.4584 8.20557 11.525 8.49571 11.6716 8.82693C11.9517 9.50357 12.2983 10.194 12.5781 10.8567C12.8581 11.5056 13.1247 12.1684 13.5247 12.707C13.7246 12.9969 14.5245 13.1488 14.8845 13.3007C15.1511 13.4249 15.5645 13.5354 15.8044 13.6873C16.2576 13.9771 16.7108 14.3087 17.1375 14.6261C17.3508 14.7919 18.0173 15.1371 18.0575 15.4132Z" fill="white"/>
<path d="M4.45861 3.41443C4.23203 3.41443 4.07211 3.44221 3.91211 3.48356V3.51117H3.93878C4.04552 3.73212 4.23203 3.88402 4.36528 4.07727C4.47202 4.29814 4.56527 4.51916 4.67201 4.74011C4.68527 4.72622 4.69861 4.71249 4.69861 4.71249C4.88534 4.57432 4.9786 4.35345 4.9786 4.02204C4.8986 3.92545 4.88527 3.82879 4.8186 3.73212C4.73868 3.59395 4.56527 3.52499 4.45861 3.41443Z" fill="white"/>
</svg>
