<svg width="64" height="64" viewBox="0 0 64 64" fill="none" xmlns="http://www.w3.org/2000/svg">
<circle cx="32" cy="32" r="32" fill="#00B6E9"/>
<path d="M31.5473 6.98532C31.8435 6.05734 33.1565 6.05734 33.4527 6.98532L38.452 22.6515C38.5843 23.0661 38.9695 23.3475 39.4047 23.3475H55.6208C56.5851 23.3475 56.9908 24.5779 56.2155 25.1515L43.0656 34.8791C42.7214 35.1337 42.5775 35.5792 42.7076 35.9871L47.7231 51.7037C48.0181 52.6282 46.9559 53.3888 46.1757 52.8117L33.0947 43.135C32.7413 42.8736 32.2587 42.8736 31.9053 43.135L18.8243 52.8117C18.0441 53.3888 16.9819 52.6282 17.2769 51.7037L22.2924 35.9871C22.4225 35.5792 22.2786 35.1337 21.9344 34.8791L8.78452 25.1515C8.00924 24.5779 8.41487 23.3475 9.37923 23.3475H25.5953C26.0305 23.3475 26.4157 23.0661 26.548 22.6515L31.5473 6.98532Z" fill="white"/>
</svg>
