<svg width="16" height="16" viewBox="0 0 16 16" fill="none" xmlns="http://www.w3.org/2000/svg">
<path d="M10.719 1.00354V1H11.4226L11.6795 1.06088C11.8506 1.10052 12.0061 1.15149 12.146 1.2159C12.2858 1.27961 12.4209 1.35394 12.5518 1.43888C12.6826 1.52383 12.8009 1.6109 12.9078 1.69868C13.0134 1.78574 13.1077 1.87848 13.1917 1.97616C13.2746 2.07527 13.4042 2.10075 13.5801 2.05261C13.756 2.00448 13.9451 1.93865 14.148 1.85299C14.3509 1.76734 14.5514 1.67248 14.7501 1.56559C14.9482 1.45941 15.0695 1.39146 15.1127 1.36314C15.1553 1.33341 15.1775 1.31713 15.1805 1.31501L15.183 1.31005L15.1968 1.30226L15.2106 1.29448L15.2244 1.28669L15.2382 1.2789L15.2412 1.27395L15.2454 1.27041L15.2496 1.26687L15.252 1.26191L15.2658 1.25696L15.2796 1.25342L15.2772 1.27749L15.273 1.30156L15.2664 1.32562L15.2598 1.34969L15.2532 1.36597L15.2466 1.38225L15.24 1.40632C15.2352 1.4226 15.231 1.44384 15.2262 1.47003C15.2214 1.49693 15.1787 1.60311 15.0977 1.78928C15.0167 1.97546 14.9152 2.16375 14.7933 2.35559C14.6715 2.54671 14.5628 2.69183 14.4662 2.78952C14.3689 2.88862 14.3041 2.95728 14.2729 2.99692C14.2411 3.03727 14.2032 3.07479 14.1582 3.10877L14.0904 3.16115L14.0766 3.16894L14.0628 3.17672L14.0604 3.18168L14.0562 3.18522L14.052 3.18876L14.049 3.19371L14.0352 3.2015L14.0213 3.20929L14.0189 3.21424L14.0147 3.21778L14.0105 3.22132L14.0075 3.22628L14.0051 3.23123L14.0009 3.23477L13.9967 3.23831L13.9937 3.24327H14.0616L14.4404 3.1477C14.6931 3.08399 14.9338 3.00683 15.1637 2.91623L15.5287 2.77253L15.5696 2.75625L15.59 2.74846L15.6038 2.74067L15.6176 2.73289L15.6314 2.7251L15.6452 2.71731L15.6722 2.71236L15.6992 2.70882V2.74067L15.6926 2.74421L15.686 2.74917L15.6836 2.75412L15.6794 2.75766L15.6752 2.7612L15.6722 2.76616L15.6698 2.77111L15.6656 2.77465L15.6614 2.77819L15.6584 2.78314L15.656 2.7881L15.6518 2.79164L15.6452 2.80792L15.6386 2.8242L15.6344 2.82774C15.6326 2.83128 15.5756 2.92118 15.4627 3.09886C15.3498 3.27724 15.2892 3.36785 15.2802 3.36998C15.2712 3.37352 15.2586 3.38909 15.2424 3.41811C15.2268 3.44784 15.1313 3.56677 14.9554 3.77347C14.7795 3.98017 14.6073 4.16492 14.4386 4.32703C14.2693 4.48984 14.1834 4.68946 14.1816 4.9266C14.1786 5.16232 14.1684 5.42919 14.1504 5.72721C14.1324 6.02523 14.0988 6.3466 14.049 6.69205C13.9991 7.03749 13.9229 7.42824 13.819 7.86429C13.7152 8.30035 13.5891 8.72578 13.4402 9.13989C13.2914 9.55471 13.1359 9.92634 12.9738 10.2562C12.8117 10.5861 12.6628 10.865 12.5278 11.0936C12.3927 11.3223 12.2552 11.5375 12.1154 11.7392C11.9755 11.941 11.799 12.1689 11.5853 12.4216C11.371 12.6736 11.2533 12.8117 11.2335 12.8364C11.2125 12.8598 11.1242 12.9469 10.9682 13.0976C10.8133 13.2498 10.6464 13.402 10.4675 13.5535C10.2898 13.7043 10.1265 13.8303 9.97764 13.9315C9.82877 14.0327 9.64927 14.1481 9.43916 14.2777C9.23025 14.4086 9.00394 14.5297 8.76021 14.6415C8.51648 14.7534 8.25955 14.8567 7.98941 14.9523C7.71927 15.0478 7.45753 15.1222 7.2048 15.1753C6.95207 15.2283 6.66632 15.2737 6.34576 15.3105L5.86551 15.3664V15.3742H4.98665V15.3664L4.87199 15.3586C4.79515 15.3529 4.73212 15.348 4.68289 15.3423C4.63306 15.3367 4.44637 15.3076 4.1216 15.2545C3.79683 15.2014 3.5423 15.1484 3.3574 15.0953C3.1725 15.0422 2.89756 14.9409 2.53257 14.7923C2.16758 14.6436 1.85482 14.4929 1.59548 14.3407C1.33675 14.1899 1.17467 14.0943 1.10863 14.0533C1.0438 14.0136 0.97056 13.9648 0.889518 13.9067L0.767654 13.819L0.765253 13.814L0.761051 13.8105L0.756849 13.8069L0.753847 13.802L0.74004 13.7942L0.726233 13.7864L0.723832 13.7814L0.71963 13.7779L0.715427 13.7744L0.712426 13.7694L0.710024 13.7645L0.705822 13.7609H0.699219V13.7291L0.713026 13.7326L0.726833 13.7376L0.787465 13.7453C0.828286 13.751 0.938743 13.7588 1.11884 13.7694C1.29893 13.78 1.49103 13.78 1.69334 13.7694C1.89624 13.7588 2.10335 13.7347 2.31526 13.6979C2.52717 13.6604 2.7775 13.5967 3.06565 13.5068C3.3544 13.4162 3.61914 13.3093 3.86106 13.1847C4.10179 13.0594 4.27288 12.966 4.37493 12.9037C4.47578 12.8428 4.63006 12.7302 4.83717 12.5653L5.14813 12.3183L5.15113 12.3133L5.15534 12.3098L5.15954 12.3062L5.16194 12.3013L5.16494 12.2963L5.16914 12.2928L5.17335 12.2892L5.17575 12.2843L5.18955 12.2793L5.20336 12.2758L5.20636 12.2595L5.21057 12.2432L5.21477 12.2397L5.21717 12.2347L5.10911 12.2269C5.03707 12.2213 4.96684 12.2163 4.8996 12.2107C4.83177 12.205 4.72611 12.1816 4.58204 12.1392C4.43796 12.0967 4.28248 12.033 4.1156 11.948C3.94871 11.8631 3.78662 11.7619 3.62874 11.6451C3.47086 11.5283 3.3568 11.4306 3.28656 11.3534C3.21693 11.277 3.12688 11.1687 3.01582 11.0278C2.90597 10.8862 2.81052 10.7411 2.72887 10.5925C2.64783 10.4438 2.57039 10.2718 2.49655 10.0771L2.3843 9.78689L2.37769 9.76282L2.37109 9.73875L2.36689 9.72247L2.36388 9.70619L2.3843 9.70973L2.40471 9.71469L2.55358 9.73875C2.65263 9.75504 2.80812 9.75999 3.02003 9.75504C3.23194 9.74937 3.37841 9.73875 3.45945 9.72318C3.5405 9.7069 3.59032 9.69628 3.60833 9.69133L3.63535 9.68354L3.66896 9.67575L3.70258 9.66797L3.70558 9.66301L3.70978 9.65947L3.71399 9.65593L3.71639 9.65098L3.68937 9.64319L3.66236 9.6354L3.63535 9.62762L3.60833 9.61983L3.58132 9.61204C3.56331 9.60638 3.53149 9.59576 3.48647 9.58019C3.44144 9.56391 3.31958 9.50586 3.12148 9.40464C2.92338 9.30341 2.76549 9.20501 2.64783 9.10945C2.53017 9.01318 2.41851 8.90841 2.31226 8.79515C2.2066 8.68048 2.09074 8.53253 1.96468 8.35202C1.83861 8.17151 1.72575 7.96127 1.6267 7.72201C1.52765 7.48275 1.45321 7.2541 1.40338 7.03608C1.35416 6.81947 1.32114 6.5979 1.30613 6.37421L1.28152 6.03938L1.29533 6.04292L1.30914 6.04788L1.32294 6.05566L1.33675 6.06345L1.35056 6.07124L1.36436 6.07902L1.57387 6.19087C1.71375 6.2652 1.88724 6.32891 2.09434 6.382C2.30145 6.43509 2.42572 6.46411 2.46654 6.46977L2.52717 6.47756H2.64903L2.64663 6.47261L2.64243 6.46907L2.63823 6.46553L2.63523 6.46057L2.63282 6.45562L2.62862 6.45208L2.62442 6.44854L2.62142 6.44358L2.60761 6.4358L2.5938 6.42801L2.5914 6.42305L2.5872 6.41951L2.583 6.41598L2.58 6.41102L2.56619 6.40323L2.55238 6.39545L2.54998 6.39049C2.54698 6.38837 2.50856 6.35439 2.43352 6.28856C2.35968 6.22131 2.28224 6.13495 2.2006 6.02877C2.11956 5.92258 2.03852 5.81074 1.95687 5.69394C1.87583 5.57643 1.80319 5.45114 1.74076 5.31947C1.67773 5.18639 1.61109 5.01721 1.54086 4.81263C1.47122 4.60876 1.41839 4.40277 1.38237 4.19536C1.34636 3.98795 1.32594 3.78338 1.32174 3.58163C1.31694 3.37989 1.32174 3.20716 1.33555 3.06346C1.34936 2.91977 1.37637 2.75766 1.41659 2.57715C1.45741 2.39664 1.51564 2.20481 1.59248 2.00306L1.70714 1.70009L1.71375 1.67602L1.72035 1.65196L1.72455 1.64842L1.72695 1.64346L1.72995 1.63851L1.73416 1.63497L1.73836 1.63851L1.74076 1.64346L1.74376 1.64842L1.74796 1.65196L1.75217 1.6555L1.75457 1.66045L1.75757 1.66541L1.76177 1.66894L1.76837 1.68523L1.77498 1.70151L1.77918 1.70505L1.78158 1.71L1.96408 1.94926C2.08594 2.10854 2.23001 2.28692 2.3969 2.48371C2.56379 2.6805 2.65624 2.78244 2.67425 2.79022C2.69226 2.79872 2.71507 2.82349 2.74208 2.86384C2.7691 2.90348 2.85914 2.99763 3.01282 3.14629C3.1659 3.29494 3.36701 3.46766 3.61494 3.66445C3.86286 3.86124 4.13781 4.0552 4.43976 4.24633C4.74172 4.43746 5.06649 4.61018 5.41347 4.7645C5.76045 4.91881 6.00418 5.01933 6.14405 5.06747C6.28392 5.1156 6.52285 5.17648 6.86082 5.25081C7.1958 5.32443 7.45093 5.37256 7.62202 5.3938C7.79311 5.41504 7.91077 5.42707 7.9738 5.43061L8.06865 5.43415L8.06625 5.41008L8.06205 5.38601L8.03503 5.18639C8.01702 5.05331 8.00802 4.86714 8.00802 4.62787C8.00802 4.38861 8.02363 4.16775 8.05544 3.96601C8.08726 3.76426 8.13409 3.55969 8.19772 3.35228C8.26075 3.14487 8.32258 2.97852 8.38321 2.85322C8.44445 2.72864 8.52489 2.58706 8.62394 2.42708C8.72299 2.26781 8.85146 2.10287 9.00934 1.93298C9.16722 1.76309 9.34732 1.61161 9.55022 1.47853C9.75313 1.34544 9.94042 1.24493 10.1115 1.17555C10.2826 1.10618 10.4273 1.06159 10.5443 1.04035C10.6608 1.0184 10.719 1.00637 10.719 1.00354Z" fill="white" stroke="white" stroke-width="0.5"/>
</svg>
